<svg width="25" height="24" viewBox="0 0 25 24" fill="none" xmlns="http://www.w3.org/2000/svg">
<path d="M18.1102 21.9895L7.00495 22C4.56179 22.0022 2.56118 20.0055 2.5584 17.5623L2.54785 6.45709C2.54563 4.01394 4.54236 2.01333 6.98551 2.01055L18.0908 2C20.5339 1.99778 22.5345 3.9945 22.5373 6.43766L22.5478 17.5429C22.5506 19.9866 20.5533 21.9872 18.1102 21.9895Z" fill="url(#paint0_radial_406_368)"/>
<path d="M18.1102 21.9895L7.00495 22C4.56179 22.0022 2.56118 20.0055 2.5584 17.5623L2.54785 6.45709C2.54563 4.01394 4.54236 2.01333 6.98551 2.01055L18.0908 2C20.5339 1.99778 22.5345 3.9945 22.5373 6.43766L22.5478 17.5429C22.5506 19.9866 20.5533 21.9872 18.1102 21.9895Z" fill="url(#paint1_radial_406_368)"/>
<path d="M12.548 15.887C10.4052 15.887 8.66113 14.1434 8.66113 12.0001C8.66113 9.85681 10.4052 8.11328 12.548 8.11328C14.6907 8.11328 16.4348 9.85681 16.4348 12.0001C16.4348 14.1434 14.6907 15.887 12.548 15.887ZM12.548 9.22381C11.0171 9.22381 9.77166 10.4693 9.77166 12.0001C9.77166 13.531 11.0171 14.7764 12.548 14.7764C14.0788 14.7764 15.3243 13.531 15.3243 12.0001C15.3243 10.4693 14.0788 9.22381 12.548 9.22381Z" fill="white"/>
<path d="M16.7128 8.66872C17.1728 8.66872 17.5457 8.29582 17.5457 7.83582C17.5457 7.37583 17.1728 7.00293 16.7128 7.00293C16.2528 7.00293 15.8799 7.37583 15.8799 7.83582C15.8799 8.29582 16.2528 8.66872 16.7128 8.66872Z" fill="white"/>
<path d="M15.8791 19.2186H9.21594C7.07318 19.2186 5.3291 17.475 5.3291 15.3317V8.66858C5.3291 6.52526 7.07318 4.78174 9.21594 4.78174H15.8791C18.0218 4.78174 19.7659 6.52526 19.7659 8.66858V15.3317C19.7659 17.475 18.0218 19.2186 15.8791 19.2186ZM9.21594 5.89226C7.68508 5.89226 6.43963 7.13772 6.43963 8.66858V15.3317C6.43963 16.8626 7.68508 18.108 9.21594 18.108H15.8791C17.4099 18.108 18.6554 16.8626 18.6554 15.3317V8.66858C18.6554 7.13772 17.4099 5.89226 15.8791 5.89226H9.21594Z" fill="white"/>
<defs>
<radialGradient id="paint0_radial_406_368" cx="0" cy="0" r="1" gradientUnits="userSpaceOnUse" gradientTransform="translate(9.98282 22.0144) scale(24.9307)">
<stop stop-color="#FFDD55"/>
<stop offset="0.328" stop-color="#FF543F"/>
<stop offset="0.348" stop-color="#FC5245"/>
<stop offset="0.504" stop-color="#E64771"/>
<stop offset="0.643" stop-color="#D53E91"/>
<stop offset="0.761" stop-color="#CC39A4"/>
<stop offset="0.841" stop-color="#C837AB"/>
</radialGradient>
<radialGradient id="paint1_radial_406_368" cx="0" cy="0" r="1" gradientUnits="userSpaceOnUse" gradientTransform="translate(5.76615 1.7503) scale(16.554 11.03)">
<stop stop-color="#4168C9"/>
<stop offset="0.999" stop-color="#4168C9" stop-opacity="0"/>
</radialGradient>
</defs>
</svg>
