<svg width="24" height="24" viewBox="0 0 24 24" fill="none" xmlns="http://www.w3.org/2000/svg">
<path d="M20.4048 2H3.46809C2.65745 2 2 2.64176 2 3.43271V20.5677C2 21.3582 2.65745 22 3.46809 22H20.4048C21.2167 22 21.8741 21.3578 21.8741 20.5677V3.43271C21.8741 2.64136 21.2163 2 20.4048 2Z" fill="#0072B1"/>
<path d="M8.02379 18.7425H5.02206V9.71162H8.02379V18.7425ZM6.52312 8.47796H6.50302C5.49614 8.47796 4.84473 7.78432 4.84473 6.91778C4.84473 6.03194 5.51625 5.3576 6.54282 5.3576C7.56981 5.3576 8.20152 6.03194 8.22162 6.91778C8.22162 7.78432 7.5694 8.47796 6.52312 8.47796ZM18.8481 18.7425H15.8464V13.91C15.8464 12.6965 15.4121 11.8681 14.326 11.8681C13.4969 11.8681 13.0031 12.4266 12.7855 12.9663C12.7063 13.1589 12.687 13.4283 12.687 13.6985V18.7421H9.68529C9.68529 18.7421 9.7247 10.5577 9.68529 9.71122H12.687V10.9895C13.0859 10.3743 13.7992 9.4981 15.3928 9.4981C17.3675 9.4981 18.8485 10.7893 18.8485 13.5634L18.8481 18.7425Z" fill="white"/>
</svg>
