<svg width="501" height="749" fill="none" xmlns="http://www.w3.org/2000/svg"><g filter="url(#b)" clip-path="url(#a)"><g clip-path="url(#c)"><rect x="104.078" y="60.525" width="292.546" height="632.753" rx="27.697" fill="#F6F6F6"/><g clip-path="url(#d)"><path fill="#fff" d="M104 60.092h292.334v633H104z"/><path d="m133.342 139.579-2.411 7.351h-1.943l3.295-8.868h1.236l-.177 1.517Zm2.004 7.351-2.418-7.351-.195-1.517h1.249l3.313 8.868h-1.949Zm-.109-3.301v1.431h-4.684v-1.431h4.684Zm4.642-1.925v5.226h-1.76v-6.59h1.65l.11 1.364Zm-.244 1.699h-.487c0-.459.055-.881.164-1.266.114-.39.278-.727.494-1.011a2.25 2.25 0 0 1 .81-.67c.32-.159.692-.238 1.114-.238.292 0 .56.045.804.134.244.085.453.221.627.408.179.183.317.422.414.719.098.292.147.643.147 1.053v4.398h-1.754v-4.203c0-.3-.041-.532-.122-.694a.693.693 0 0 0-.347-.341 1.303 1.303 0 0 0-.53-.098c-.228 0-.427.047-.597.141a1.175 1.175 0 0 0-.414.389 1.75 1.75 0 0 0-.244.573 3 3 0 0 0-.079.706Zm3.922-.201-.627.079c0-.43.053-.83.158-1.199.11-.37.27-.695.481-.975.215-.28.481-.497.798-.651a2.412 2.412 0 0 1 1.096-.238c.317 0 .605.047.865.14.26.089.481.234.664.433.187.194.329.45.426.767.102.317.153.704.153 1.163v4.209h-1.76v-4.209c0-.304-.041-.536-.122-.694a.637.637 0 0 0-.341-.335 1.283 1.283 0 0 0-.524-.098c-.211 0-.396.043-.554.128a1.103 1.103 0 0 0-.396.341 1.568 1.568 0 0 0-.238.512c-.052.191-.079.4-.079.627Zm5.403.5v-.128c0-.483.069-.928.208-1.334.138-.41.339-.765.602-1.066.264-.3.589-.534.975-.7.386-.171.828-.256 1.328-.256.499 0 .944.085 1.333.256.39.166.717.4.981.7.268.301.471.656.609 1.066.138.406.207.851.207 1.334v.128c0 .479-.069.923-.207 1.333a3.094 3.094 0 0 1-.609 1.066 2.703 2.703 0 0 1-.975.701 3.327 3.327 0 0 1-1.327.249c-.5 0-.944-.083-1.334-.249a2.761 2.761 0 0 1-.981-.701 3.161 3.161 0 0 1-.602-1.066 4.125 4.125 0 0 1-.208-1.333Zm1.754-.128v.128c0 .276.025.534.074.773.048.24.125.451.231.634.11.178.252.318.426.42.175.101.388.152.64.152.243 0 .452-.051.627-.152.175-.102.315-.242.42-.42.106-.183.183-.394.232-.634.052-.239.079-.497.079-.773v-.128c0-.268-.027-.52-.079-.755a1.994 1.994 0 0 0-.238-.634 1.164 1.164 0 0 0-.42-.438 1.2 1.2 0 0 0-.633-.159 1.2 1.2 0 0 0-.634.159c-.17.105-.31.251-.42.438a2.062 2.062 0 0 0-.231.634 3.697 3.697 0 0 0-.074.755Zm9.777 1.778v-5.012h1.754v6.59h-1.651l-.103-1.578Zm.194-1.352.518-.012c0 .438-.051.847-.152 1.224a2.936 2.936 0 0 1-.457.975 2.134 2.134 0 0 1-.767.639c-.309.15-.672.225-1.09.225a2.82 2.82 0 0 1-.89-.134 1.803 1.803 0 0 1-.694-.432 2.102 2.102 0 0 1-.451-.761c-.105-.313-.158-.689-.158-1.127v-4.257h1.754v4.269c0 .195.022.359.067.493a.89.89 0 0 0 .201.329.723.723 0 0 0 .298.183c.118.037.248.055.39.055.362 0 .646-.073.853-.219.211-.147.359-.345.444-.597.09-.256.134-.54.134-.853Zm4.929-2.253v5.183h-1.754v-6.59h1.644l.11 1.407Zm-.256 1.656h-.475c0-.487.063-.925.189-1.315.126-.394.302-.729.53-1.005.227-.28.497-.493.81-.64.316-.15.669-.225 1.059-.225.309 0 .591.045.847.134.256.089.475.231.658.426.186.195.328.453.426.774.101.321.152.712.152 1.175v4.203h-1.766v-4.209c0-.292-.041-.52-.122-.682a.685.685 0 0 0-.359-.341 1.4 1.4 0 0 0-.573-.104c-.235 0-.44.047-.615.141-.17.093-.312.223-.426.389-.11.163-.193.354-.25.573a2.8 2.8 0 0 0-.085.706Zm9.07-3.063v1.242h-3.837v-1.242h3.837Zm-2.887-1.626h1.754v6.23c0 .191.024.337.073.439.053.101.13.172.231.213.102.036.23.055.384.055.11 0 .207-.004.292-.013.09-.012.165-.024.226-.036l.006 1.291a3.342 3.342 0 0 1-1.066.158c-.386 0-.723-.063-1.011-.188a1.391 1.391 0 0 1-.658-.622c-.154-.284-.231-.657-.231-1.12v-6.407Z" fill="#484848"/><path d="M326.39 141.99v1.529h-6.078v-1.529h6.078Zm-2.204-2.405v6.455h-1.663v-6.455h1.663Zm10.739-1.523v8.868h-1.821v-8.868h1.821Zm2.729 0v1.431h-7.235v-1.431h7.235Zm-.096 5.64v-.128c0-.483.069-.928.207-1.334a3.09 3.09 0 0 1 .603-1.066c.264-.3.588-.534.974-.7.386-.171.828-.256 1.328-.256.499 0 .944.085 1.333.256.39.166.717.4.981.7.268.301.471.656.609 1.066.138.406.207.851.207 1.334v.128c0 .479-.069.923-.207 1.333a3.094 3.094 0 0 1-.609 1.066 2.708 2.708 0 0 1-.974.701 3.336 3.336 0 0 1-1.328.249c-.5 0-.944-.083-1.334-.249a2.757 2.757 0 0 1-.98-.701 3.147 3.147 0 0 1-.603-1.066 4.152 4.152 0 0 1-.207-1.333Zm1.754-.128v.128c0 .276.024.534.073.773.048.24.126.451.231.634.11.178.252.318.426.42.175.101.388.152.64.152.244 0 .453-.051.627-.152.175-.102.315-.242.42-.42.106-.183.183-.394.232-.634a3.57 3.57 0 0 0 .079-.773v-.128c0-.268-.026-.52-.079-.755a1.994 1.994 0 0 0-.238-.634 1.164 1.164 0 0 0-.42-.438 1.197 1.197 0 0 0-.633-.159 1.2 1.2 0 0 0-.634.159c-.17.105-.31.251-.42.438a2.088 2.088 0 0 0-.231.634 3.699 3.699 0 0 0-.073.755Zm7.632-1.967v7.856h-1.754v-9.123h1.626l.128 1.267Zm4.172 1.955v.128c0 .479-.057.923-.171 1.333-.109.41-.272.768-.487 1.072a2.31 2.31 0 0 1-.804.707 2.327 2.327 0 0 1-1.096.249c-.402 0-.751-.081-1.048-.243a2.194 2.194 0 0 1-.749-.682 3.964 3.964 0 0 1-.481-1.03 8.094 8.094 0 0 1-.28-1.254v-.335c.065-.479.158-.918.28-1.316.122-.402.282-.749.481-1.041.203-.297.451-.526.743-.688a2.131 2.131 0 0 1 1.042-.244c.418 0 .785.079 1.102.238.321.158.589.385.804.682a3.1 3.1 0 0 1 .493 1.059c.114.41.171.865.171 1.365Zm-1.76.128v-.128c0-.281-.025-.538-.073-.774a2.009 2.009 0 0 0-.22-.627 1.058 1.058 0 0 0-.968-.567c-.24 0-.445.039-.615.116a1.02 1.02 0 0 0-.408.335 1.548 1.548 0 0 0-.238.524 3.423 3.423 0 0 0-.097.688v.847c.02.3.077.57.17.81.094.235.238.422.433.56.195.138.45.207.767.207.232 0 .426-.051.585-.152a1.18 1.18 0 0 0 .384-.433c.101-.182.172-.393.213-.633a4.28 4.28 0 0 0 .067-.773Zm6.621-1.255v1.376h-3.441v-1.376h3.441Zm5.671 2.917v-5.012h1.754v6.59h-1.65l-.104-1.578Zm.195-1.352.518-.012c0 .438-.051.847-.152 1.224a2.936 2.936 0 0 1-.457.975 2.129 2.129 0 0 1-.768.639c-.308.15-.671.225-1.09.225-.32 0-.617-.044-.889-.134a1.803 1.803 0 0 1-.694-.432 2.102 2.102 0 0 1-.451-.761c-.105-.313-.158-.689-.158-1.127v-4.257h1.754v4.269c0 .195.022.359.067.493a.89.89 0 0 0 .201.329.723.723 0 0 0 .298.183c.118.037.248.055.39.055.361 0 .646-.073.853-.219.211-.147.359-.345.444-.597.09-.256.134-.54.134-.853Zm4.965-2.393v7.856h-1.754v-9.123h1.626l.128 1.267Zm4.172 1.955v.128c0 .479-.057.923-.171 1.333-.109.41-.272.768-.487 1.072a2.31 2.31 0 0 1-.804.707 2.327 2.327 0 0 1-1.096.249c-.402 0-.751-.081-1.048-.243a2.194 2.194 0 0 1-.749-.682 3.964 3.964 0 0 1-.481-1.03 8.094 8.094 0 0 1-.28-1.254v-.335c.065-.479.158-.918.28-1.316.122-.402.282-.749.481-1.041.203-.297.451-.526.743-.688a2.131 2.131 0 0 1 1.042-.244c.418 0 .785.079 1.102.238.321.158.589.385.804.682a3.1 3.1 0 0 1 .493 1.059c.114.41.171.865.171 1.365Zm-1.76.128v-.128c0-.281-.025-.538-.073-.774a2.009 2.009 0 0 0-.22-.627 1.058 1.058 0 0 0-.968-.567c-.239 0-.445.039-.615.116a1.02 1.02 0 0 0-.408.335 1.548 1.548 0 0 0-.238.524 3.423 3.423 0 0 0-.097.688v.847c.02.3.077.57.17.81.094.235.238.422.433.56.195.138.451.207.767.207.232 0 .427-.051.585-.152a1.18 1.18 0 0 0 .384-.433c.101-.182.172-.393.213-.633a4.28 4.28 0 0 0 .067-.773Z" fill="#34C5BF"/><path d="m130.256 159.107 1.544 3.174 1.544-3.174h1.27l-2.238 4.202v2.448h-1.156v-2.448l-2.238-4.202h1.274Zm4.463 4.234v-.105c0-.357.052-.687.155-.991.104-.308.253-.574.448-.8.198-.228.438-.405.722-.53.286-.128.609-.191.968-.191.362 0 .685.063.968.191.286.125.529.302.727.53.197.226.348.492.452.8.103.304.155.634.155.991v.105c0 .356-.052.686-.155.991a2.385 2.385 0 0 1-.452.799 2.092 2.092 0 0 1-.722.53 2.365 2.365 0 0 1-.964.187 2.41 2.41 0 0 1-.973-.187 2.092 2.092 0 0 1-.722-.53 2.368 2.368 0 0 1-.452-.799 3.077 3.077 0 0 1-.155-.991Zm1.101-.105v.105c0 .222.023.432.068.63.046.198.117.372.215.521.097.149.222.266.374.352.153.085.334.127.544.127.204 0 .381-.042.53-.127.152-.086.277-.203.374-.352.098-.149.169-.323.215-.521.049-.198.073-.408.073-.63v-.105c0-.219-.024-.427-.073-.621a1.623 1.623 0 0 0-.219-.526 1.047 1.047 0 0 0-.909-.488c-.207 0-.387.044-.539.132a1.058 1.058 0 0 0-.37.356 1.663 1.663 0 0 0-.215.526 2.749 2.749 0 0 0-.068.621Zm7.39 1.356v-3.777h1.106v4.942h-1.042l-.064-1.165Zm.156-1.027.37-.009c0 .331-.037.637-.11.918a2.13 2.13 0 0 1-.338.726 1.568 1.568 0 0 1-.585.479 1.971 1.971 0 0 1-.854.169c-.24 0-.461-.035-.662-.105a1.358 1.358 0 0 1-.521-.324 1.47 1.47 0 0 1-.333-.571 2.61 2.61 0 0 1-.119-.84v-3.193h1.101v3.202c0 .18.021.33.064.452.042.119.1.215.173.288a.616.616 0 0 0 .256.155c.097.031.201.046.311.046.313 0 .56-.061.74-.183.182-.125.312-.292.388-.502.079-.21.119-.446.119-.708Zm7.18.854a.548.548 0 0 0-.082-.297c-.055-.091-.16-.174-.315-.247a3.083 3.083 0 0 0-.676-.201 5.876 5.876 0 0 1-.722-.205 2.303 2.303 0 0 1-.557-.297 1.245 1.245 0 0 1-.361-.411 1.143 1.143 0 0 1-.128-.548c0-.201.044-.392.132-.571.089-.18.215-.338.38-.475.164-.137.363-.246.598-.325.237-.079.502-.118.795-.118.414 0 .769.07 1.064.21.298.137.527.324.685.561.158.235.238.5.238.795h-1.101a.7.7 0 0 0-.101-.365.698.698 0 0 0-.292-.279 1.002 1.002 0 0 0-.493-.109c-.189 0-.346.03-.471.091a.646.646 0 0 0-.274.228.584.584 0 0 0-.041.535.533.533 0 0 0 .164.178c.077.052.18.1.311.146.134.046.302.09.502.133.378.079.702.181.973.306.274.121.485.28.631.475.146.191.219.435.219.73 0 .22-.047.421-.142.603-.091.18-.225.337-.402.471a2.01 2.01 0 0 1-.634.306 2.867 2.867 0 0 1-.823.109c-.447 0-.826-.079-1.137-.237a1.803 1.803 0 0 1-.708-.617 1.46 1.46 0 0 1-.238-.785h1.065a.816.816 0 0 0 .169.488.905.905 0 0 0 .383.261c.156.052.316.077.48.077.198 0 .364-.025.498-.077a.72.72 0 0 0 .306-.219.525.525 0 0 0 .105-.32Zm4.221 1.429c-.366 0-.696-.059-.992-.178a2.168 2.168 0 0 1-.749-.507 2.235 2.235 0 0 1-.47-.762 2.668 2.668 0 0 1-.165-.946v-.183c0-.386.057-.737.169-1.05.113-.314.27-.582.471-.804.201-.226.438-.398.712-.516.274-.119.571-.178.891-.178.353 0 .662.059.927.178.265.118.485.286.658.502.177.213.308.468.393.763.088.295.132.621.132.977v.471h-3.818v-.79h2.731v-.087a1.54 1.54 0 0 0-.118-.557.951.951 0 0 0-.325-.421c-.146-.106-.341-.159-.584-.159a.994.994 0 0 0-.489.118.975.975 0 0 0-.352.334 1.772 1.772 0 0 0-.219.53 2.96 2.96 0 0 0-.073.689v.183c0 .216.029.417.087.603.06.183.149.343.264.48.116.137.256.245.421.324.164.076.351.114.562.114.264 0 .5-.053.708-.16.207-.106.386-.257.539-.452l.58.562a2.058 2.058 0 0 1-1.042.79 2.494 2.494 0 0 1-.849.132Zm3.928-3.978v3.887h-1.101v-4.942h1.037l.064 1.055Zm-.197 1.233-.356-.004c.003-.35.052-.672.146-.964a2.4 2.4 0 0 1 .402-.754c.174-.21.381-.371.621-.484a1.83 1.83 0 0 1 .804-.173c.238 0 .453.033.644.1.195.064.361.169.498.315.14.146.247.337.32.571.073.232.11.516.11.854v3.193h-1.106v-3.197c0-.238-.035-.425-.105-.562a.589.589 0 0 0-.297-.297 1.11 1.11 0 0 0-.479-.091 1.065 1.065 0 0 0-.886.443 1.537 1.537 0 0 0-.233.475 1.95 1.95 0 0 0-.083.575Zm7.327 1.631v-5.993h1.105v7.016h-1l-.105-1.023Zm-3.216-1.393v-.096c0-.375.045-.716.133-1.023a2.4 2.4 0 0 1 .384-.8c.167-.225.371-.397.612-.516.24-.122.511-.182.813-.182.298 0 .56.057.785.173.226.116.417.282.576.498.158.213.285.469.379.767.094.296.161.625.201.987v.306c-.04.353-.107.676-.201.968a2.606 2.606 0 0 1-.379.759 1.65 1.65 0 0 1-.58.493 1.706 1.706 0 0 1-.79.173c-.299 0-.568-.062-.809-.187a1.79 1.79 0 0 1-.607-.525 2.45 2.45 0 0 1-.384-.795 3.62 3.62 0 0 1-.133-1Zm1.101-.096v.096c0 .225.02.435.06.63.042.195.108.367.196.516a1 1 0 0 0 .343.347 1 1 0 0 0 .511.124c.25 0 .455-.055.617-.165.161-.109.288-.257.379-.443.094-.189.158-.399.192-.63v-.827a2.092 2.092 0 0 0-.114-.502 1.355 1.355 0 0 0-.224-.407.947.947 0 0 0-.352-.274c-.137-.067-.3-.1-.489-.1a.957.957 0 0 0-.511.128c-.14.085-.256.202-.347.351a1.722 1.722 0 0 0-.197.521c-.042.198-.064.41-.064.635Z" fill="#484848"/><g filter="url(#e)"><rect x="116.473" y="175.467" width="267.388" height="69.419" rx="6.236" fill="#fff"/><path d="M134.634 199.308h1.821v5.859c0 .682-.147 1.257-.439 1.724a2.698 2.698 0 0 1-1.2 1.053c-.507.236-1.092.354-1.754.354-.661 0-1.25-.118-1.766-.354a2.745 2.745 0 0 1-1.206-1.053c-.288-.467-.432-1.042-.432-1.724v-5.859h1.827v5.859c0 .398.063.723.189.975.126.251.306.436.542.554.239.118.522.177.846.177.333 0 .615-.059.847-.177.235-.118.414-.303.536-.554.126-.252.189-.577.189-.975v-5.859Zm7.941 6.547c0-.158-.024-.3-.073-.426a.795.795 0 0 0-.256-.353 2.25 2.25 0 0 0-.529-.323 7.715 7.715 0 0 0-.883-.329c-.402-.13-.784-.276-1.145-.438a4.71 4.71 0 0 1-.951-.567 2.545 2.545 0 0 1-.645-.761 2.1 2.1 0 0 1-.232-1.005c0-.369.082-.704.244-1.005.163-.304.39-.564.682-.779a3.24 3.24 0 0 1 1.036-.506 4.675 4.675 0 0 1 1.321-.176c.654 0 1.224.117 1.712.353.487.235.864.558 1.132.968.272.41.408.879.408 1.407h-1.815c0-.26-.054-.487-.164-.682a1.117 1.117 0 0 0-.487-.469c-.215-.114-.487-.171-.816-.171-.317 0-.581.049-.792.147-.211.093-.37.221-.475.383a.942.942 0 0 0-.158.536c0 .15.036.287.109.408.077.122.191.236.341.341.15.106.335.205.554.299.22.093.473.185.762.274.483.146.907.31 1.273.493.369.183.678.388.925.615.248.228.435.485.561.774.126.288.188.615.188.98 0 .386-.075.731-.225 1.036a2.12 2.12 0 0 1-.652.773 3.052 3.052 0 0 1-1.017.481c-.393.11-.834.165-1.321.165-.439 0-.871-.057-1.297-.171a3.928 3.928 0 0 1-1.164-.53 2.668 2.668 0 0 1-.828-.901c-.207-.365-.311-.798-.311-1.297h1.834c0 .276.042.509.128.7.085.191.205.345.359.463.158.118.345.203.56.256.219.053.459.079.719.079.316 0 .576-.045.779-.134a.956.956 0 0 0 .609-.908Zm5.792 2.321h-1.93l.012-1.425h1.918c.479 0 .883-.108 1.212-.323.329-.219.577-.538.743-.956.171-.418.256-.924.256-1.517v-.432a4.45 4.45 0 0 0-.146-1.2 2.413 2.413 0 0 0-.42-.871 1.77 1.77 0 0 0-.689-.53 2.283 2.283 0 0 0-.937-.182H146.4v-1.432h1.986c.592 0 1.134.102 1.626.305a3.67 3.67 0 0 1 1.285.859c.361.373.639.82.834 1.34.199.515.298 1.09.298 1.723v.42c0 .63-.099 1.204-.298 1.724-.195.52-.473.966-.834 1.34a3.718 3.718 0 0 1-1.285.858 4.379 4.379 0 0 1-1.645.299Zm-.895-8.868v8.868h-1.827v-8.868h1.827Z" fill="#484848"/><g clip-path="url(#f)"><path d="m169.998 201.018-3.578 3.57-3.579-3.57-1.099 1.099 4.678 4.677 4.677-4.677-1.099-1.099Z" fill="#484848"/></g><path d="M132.115 219.17h-1.694l-.009-.836h1.479c.25 0 .462-.036.635-.109a.87.87 0 0 0 .402-.325.933.933 0 0 0 .137-.516c0-.222-.042-.403-.128-.543a.732.732 0 0 0-.392-.306 1.958 1.958 0 0 0-.667-.096h-1.11v5.737h-1.147v-6.651h2.257c.365 0 .691.035.977.105.29.07.535.18.736.329.204.146.357.332.461.557.107.226.16.494.16.804 0 .274-.066.526-.197.754a1.49 1.49 0 0 1-.58.553c-.255.143-.574.228-.954.256l-.366.287Zm-.05 3.006h-2.005l.516-.909h1.489c.259 0 .475-.043.649-.128a.896.896 0 0 0 .388-.361c.088-.155.132-.336.132-.543 0-.217-.038-.404-.114-.562a.78.78 0 0 0-.361-.37c-.164-.089-.379-.133-.644-.133h-1.288l.009-.836h1.677l.26.316c.365.012.665.092.9.242.237.149.414.342.53.58.115.237.173.493.173.767 0 .423-.093.778-.278 1.064a1.72 1.72 0 0 1-.791.654c-.344.146-.758.219-1.242.219Zm6.144-.991v-2.357a1.01 1.01 0 0 0-.096-.457.673.673 0 0 0-.293-.297 1 1 0 0 0-.484-.105c-.179 0-.335.03-.466.091a.75.75 0 0 0-.306.247.597.597 0 0 0-.109.352h-1.097c0-.195.048-.384.142-.567.094-.182.231-.345.411-.488a2.03 2.03 0 0 1 .644-.338c.25-.083.53-.124.841-.124.371 0 .7.063.986.188.29.124.516.313.681.566.167.25.251.563.251.941v2.197c0 .225.015.428.046.607.033.177.08.331.141.462v.073h-1.128a1.929 1.929 0 0 1-.123-.452 3.62 3.62 0 0 1-.041-.539Zm.16-2.015.009.681h-.791c-.204 0-.383.02-.539.059a1.122 1.122 0 0 0-.388.165.717.717 0 0 0-.233.265.768.768 0 0 0-.077.351c0 .131.03.252.091.361a.63.63 0 0 0 .265.251.93.93 0 0 0 .429.092c.226 0 .422-.046.589-.137a1.21 1.21 0 0 0 .402-.343.74.74 0 0 0 .156-.388l.356.489a1.696 1.696 0 0 1-.187.402c-.089.143-.204.28-.347.411a1.735 1.735 0 0 1-1.183.438c-.323 0-.611-.064-.864-.192a1.542 1.542 0 0 1-.594-.525 1.36 1.36 0 0 1-.214-.754c0-.261.048-.493.146-.694.1-.204.247-.374.438-.511.195-.137.433-.241.713-.311.28-.073.6-.11.959-.11h.864Zm3.275-4.01v7.016h-1.106v-7.016h1.106Zm3.992 6.025v-2.357a1.01 1.01 0 0 0-.096-.457.673.673 0 0 0-.293-.297.997.997 0 0 0-.484-.105c-.179 0-.335.03-.466.091a.75.75 0 0 0-.306.247.597.597 0 0 0-.109.352h-1.097c0-.195.048-.384.142-.567.094-.182.232-.345.411-.488.18-.144.395-.256.644-.338.25-.083.53-.124.841-.124.371 0 .7.063.986.188.29.124.516.313.681.566.167.25.251.563.251.941v2.197c0 .225.015.428.046.607.033.177.081.331.141.462v.073H145.8a1.929 1.929 0 0 1-.123-.452 3.62 3.62 0 0 1-.041-.539Zm.16-2.015.009.681h-.79c-.204 0-.384.02-.539.059a1.12 1.12 0 0 0-.389.165.717.717 0 0 0-.233.265.78.78 0 0 0-.077.351c0 .131.03.252.091.361a.63.63 0 0 0 .265.251.93.93 0 0 0 .429.092c.226 0 .422-.046.59-.137a1.23 1.23 0 0 0 .402-.343.747.747 0 0 0 .155-.388l.356.489a1.657 1.657 0 0 1-.187.402c-.088.143-.204.28-.347.411a1.716 1.716 0 0 1-1.183.438c-.323 0-.611-.064-.864-.192a1.539 1.539 0 0 1-.593-.525 1.354 1.354 0 0 1-.215-.754c0-.261.049-.493.146-.694.101-.204.247-.374.439-.511.194-.137.432-.241.712-.311.28-.073.6-.11.959-.11h.864Zm3.188-.881v3.887h-1.101v-4.942h1.037l.064 1.055Zm-.197 1.233-.356-.005a3.22 3.22 0 0 1 .146-.963c.098-.293.232-.544.402-.754a1.822 1.822 0 0 1 1.425-.658c.238 0 .453.034.644.101.195.064.361.169.498.315.14.146.247.336.32.571.073.231.11.516.11.854v3.193h-1.106v-3.198c0-.237-.035-.424-.105-.561a.589.589 0 0 0-.297-.297 1.109 1.109 0 0 0-.479-.092c-.189 0-.358.04-.507.119a1.134 1.134 0 0 0-.379.324 1.548 1.548 0 0 0-.233.475c-.055.18-.083.372-.083.576Zm6.331 1.868c.18 0 .341-.035.484-.105a.907.907 0 0 0 .352-.301.818.818 0 0 0 .151-.443h1.037a1.55 1.55 0 0 1-.283.872 1.962 1.962 0 0 1-.727.626 2.188 2.188 0 0 1-1 .228c-.378 0-.706-.064-.987-.192a1.937 1.937 0 0 1-.698-.539 2.37 2.37 0 0 1-.421-.79 3.27 3.27 0 0 1-.137-.959v-.16c0-.341.046-.661.137-.959.095-.302.235-.567.421-.795.185-.228.418-.406.698-.534.281-.131.608-.197.982-.197.396 0 .743.079 1.042.238.298.155.533.373.703.653.174.277.264.6.27.968h-1.037a1.106 1.106 0 0 0-.137-.493.904.904 0 0 0-.338-.356.957.957 0 0 0-.516-.133c-.223 0-.407.046-.553.137a.93.93 0 0 0-.343.366 1.795 1.795 0 0 0-.178.516c-.033.189-.05.385-.05.589v.16c0 .204.017.402.05.594.034.192.092.364.174.516.085.149.201.269.347.361.146.088.332.132.557.132Zm5.048.877c-.366 0-.696-.059-.992-.178a2.196 2.196 0 0 1-.749-.507 2.23 2.23 0 0 1-.47-.763 2.659 2.659 0 0 1-.165-.945v-.183c0-.387.057-.737.169-1.051a2.39 2.39 0 0 1 .471-.803c.201-.226.438-.398.712-.517.275-.118.571-.178.891-.178.353 0 .662.06.927.178.265.119.485.287.658.503.177.213.308.467.393.763.088.295.132.621.132.977v.471h-3.818v-.791h2.731v-.086a1.55 1.55 0 0 0-.118-.558.954.954 0 0 0-.325-.42c-.146-.106-.341-.16-.584-.16a.995.995 0 0 0-.489.119.972.972 0 0 0-.352.333 1.783 1.783 0 0 0-.219.53 2.964 2.964 0 0 0-.073.69v.183c0 .216.029.417.087.603.061.182.149.342.265.479.115.137.255.245.42.325.164.076.351.114.562.114.265 0 .501-.053.708-.16.207-.107.386-.257.539-.452l.58.562a2.265 2.265 0 0 1-.416.447c-.171.14-.379.254-.626.343a2.494 2.494 0 0 1-.849.132Zm2.85-.639c0-.171.058-.314.173-.43a.631.631 0 0 1 .471-.178c.201 0 .358.06.47.178a.584.584 0 0 1 .174.43c0 .17-.058.313-.174.429-.112.116-.269.174-.47.174a.636.636 0 0 1-.471-.174.586.586 0 0 1-.173-.429Zm.004-3.892c0-.17.058-.314.174-.429a.627.627 0 0 1 .471-.178c.2 0 .357.059.47.178a.581.581 0 0 1 .174.429.58.58 0 0 1-.174.429c-.113.116-.27.174-.47.174a.636.636 0 0 1-.471-.174.58.58 0 0 1-.174-.429Zm8.62-2.211h1.142v4.445c0 .505-.11.928-.329 1.269a2.058 2.058 0 0 1-.895.772 2.995 2.995 0 0 1-1.257.256 3.05 3.05 0 0 1-1.279-.256 2.04 2.04 0 0 1-.886-.772c-.213-.341-.319-.764-.319-1.269v-4.445h1.141v4.445c0 .319.055.583.165.79.11.204.265.355.466.452.201.098.438.146.712.146.274 0 .51-.048.708-.146.201-.097.357-.248.466-.452.11-.207.165-.471.165-.79v-4.445Zm5.888 4.938a.986.986 0 0 0-.064-.365.727.727 0 0 0-.215-.293 1.815 1.815 0 0 0-.439-.256 5.78 5.78 0 0 0-.712-.26 7.745 7.745 0 0 1-.877-.324 3.331 3.331 0 0 1-.694-.42 1.813 1.813 0 0 1-.462-.553 1.554 1.554 0 0 1-.164-.726c0-.271.056-.518.169-.74a1.7 1.7 0 0 1 .489-.576c.213-.164.464-.291.753-.379.289-.091.609-.137.959-.137.494 0 .919.091 1.275.274.359.183.635.428.827.735.194.308.292.647.292 1.019h-1.137c0-.219-.048-.413-.142-.58a.957.957 0 0 0-.42-.402c-.186-.098-.422-.146-.708-.146-.271 0-.497.041-.676.123a.892.892 0 0 0-.402.334.865.865 0 0 0-.133.475c0 .124.029.239.087.342a.945.945 0 0 0 .265.283c.119.086.268.166.448.242.179.077.391.15.635.22.368.109.689.231.963.365.274.131.503.28.685.448.183.167.32.358.412.571.091.21.137.449.137.717 0 .28-.057.533-.169.758a1.633 1.633 0 0 1-.485.571 2.31 2.31 0 0 1-.749.361 3.545 3.545 0 0 1-.968.123 3.53 3.53 0 0 1-.946-.128 2.778 2.778 0 0 1-.84-.388 2.005 2.005 0 0 1-.603-.658 1.86 1.86 0 0 1-.224-.927h1.147c0 .216.036.401.109.553.076.152.182.277.316.374.133.095.289.165.465.21.18.046.372.069.576.069.268 0 .492-.038.671-.114a.882.882 0 0 0 .411-.32.831.831 0 0 0 .138-.475Zm4.097 1.713h-1.421l.009-.909h1.412c.411 0 .755-.09 1.032-.27.28-.179.49-.437.63-.772.144-.335.215-.733.215-1.196v-.361c0-.359-.041-.678-.123-.955a1.863 1.863 0 0 0-.357-.699 1.493 1.493 0 0 0-.575-.429 1.96 1.96 0 0 0-.781-.146h-1.489v-.914h1.489c.441 0 .845.075 1.21.224.366.146.681.358.946.635.268.277.473.609.616.996.144.387.215.819.215 1.297v.352c0 .478-.071.91-.215 1.297a2.815 2.815 0 0 1-.616.996 2.781 2.781 0 0 1-.959.635 3.337 3.337 0 0 1-1.238.219Zm-.786-6.651v6.651h-1.146v-6.651h1.146Zm8.277 3.559-.877-.215.361-3.344h3.585v.932h-2.672l-.182 1.631c.103-.061.246-.121.429-.178.183-.061.391-.092.626-.092.313 0 .593.052.84.156.25.1.461.248.635.443.174.191.306.426.397.703.092.274.137.583.137.927 0 .308-.045.596-.137.864a2 2 0 0 1-.402.708 1.832 1.832 0 0 1-.68.479 2.495 2.495 0 0 1-.964.169 2.66 2.66 0 0 1-.799-.119 2.179 2.179 0 0 1-.681-.36 1.854 1.854 0 0 1-.484-.594 2.032 2.032 0 0 1-.21-.818h1.078c.027.216.087.401.178.553a.936.936 0 0 0 .375.342c.155.08.334.119.539.119.185 0 .345-.032.479-.096a.912.912 0 0 0 .334-.283c.091-.125.158-.271.201-.438.045-.168.068-.354.068-.558a1.73 1.73 0 0 0-.078-.534 1.152 1.152 0 0 0-.223-.42.962.962 0 0 0-.37-.274 1.255 1.255 0 0 0-.517-.101c-.261 0-.462.038-.602.114a1.86 1.86 0 0 0-.384.284Zm8.496-.791v1.087c0 .521-.052.966-.156 1.334-.1.366-.246.663-.438.891a1.72 1.72 0 0 1-.69.502 2.36 2.36 0 0 1-.89.16c-.262 0-.506-.033-.731-.1a1.775 1.775 0 0 1-.603-.315 1.9 1.9 0 0 1-.462-.553 3.131 3.131 0 0 1-.292-.818 5.356 5.356 0 0 1-.1-1.101v-1.087c0-.523.051-.965.155-1.324.103-.363.251-.657.443-.882.192-.228.42-.394.685-.498a2.48 2.48 0 0 1 .895-.155c.265 0 .509.033.731.1.226.064.427.166.603.306.18.141.332.323.457.549.128.222.225.491.292.808.067.314.101.679.101 1.096Zm-1.101 1.243v-1.407c0-.265-.015-.498-.046-.699a2.045 2.045 0 0 0-.137-.516 1.033 1.033 0 0 0-.219-.347.772.772 0 0 0-.301-.197 1.085 1.085 0 0 0-.38-.064c-.17 0-.322.034-.456.101a.819.819 0 0 0-.338.31 1.674 1.674 0 0 0-.21.567 4.41 4.41 0 0 0-.069.845v1.407c0 .268.015.504.046.708.03.204.076.379.137.525.061.143.134.262.219.356a.805.805 0 0 0 .301.201c.116.043.243.064.38.064.173 0 .327-.033.461-.1a.846.846 0 0 0 .338-.32c.091-.149.16-.343.205-.58.046-.238.069-.522.069-.854Zm6.418-1.243v1.087c0 .521-.052.966-.156 1.334-.1.366-.246.663-.438.891a1.72 1.72 0 0 1-.69.502c-.265.107-.562.16-.891.16-.262 0-.505-.033-.73-.1a1.775 1.775 0 0 1-.603-.315 1.9 1.9 0 0 1-.462-.553 3.096 3.096 0 0 1-.292-.818 5.35 5.35 0 0 1-.101-1.101v-1.087c0-.523.052-.965.156-1.324.103-.363.251-.657.443-.882.192-.228.42-.394.685-.498.268-.103.566-.155.895-.155.265 0 .509.033.731.1a1.72 1.72 0 0 1 1.06.855c.128.222.225.491.292.808.067.314.101.679.101 1.096Zm-1.101 1.243v-1.407c0-.265-.015-.498-.046-.699a2.045 2.045 0 0 0-.137-.516 1.033 1.033 0 0 0-.219-.347.775.775 0 0 0-.302-.197 1.076 1.076 0 0 0-.379-.064c-.17 0-.323.034-.457.101a.825.825 0 0 0-.338.31 1.717 1.717 0 0 0-.21.567 4.5 4.5 0 0 0-.068.845v1.407c0 .268.015.504.045.708.031.204.077.379.138.525.06.143.134.262.219.356a.805.805 0 0 0 .301.201c.116.043.242.064.379.064.174 0 .328-.033.462-.1a.852.852 0 0 0 .338-.32c.091-.149.16-.343.205-.58.046-.238.069-.522.069-.854Z" fill="#18AA41"/><path d="m363.342 204.138-1.401-.335.506-4.495h4.982v1.419h-3.539l-.219 1.968c.118-.069.296-.142.536-.22a2.5 2.5 0 0 1 .804-.121c.43 0 .812.067 1.145.201.333.134.615.328.846.584.236.256.415.569.536.938.122.37.183.788.183 1.255 0 .394-.061.769-.183 1.126a2.77 2.77 0 0 1-.554.95 2.571 2.571 0 0 1-.932.652c-.373.159-.816.238-1.327.238a3.63 3.63 0 0 1-1.109-.171 3.054 3.054 0 0 1-.956-.505 2.628 2.628 0 0 1-.676-.81 2.462 2.462 0 0 1-.262-1.097h1.742c.024.252.089.469.195.652.109.179.254.317.432.414.179.098.388.146.628.146.223 0 .414-.042.572-.128.158-.085.286-.203.384-.353a1.68 1.68 0 0 0 .213-.536c.049-.207.073-.43.073-.67 0-.239-.028-.456-.085-.651a1.392 1.392 0 0 0-.262-.506 1.16 1.16 0 0 0-.451-.329 1.573 1.573 0 0 0-.627-.115c-.325 0-.577.05-.755.152a1.805 1.805 0 0 0-.439.347Z" fill="#CBCBCB"/><path d="M370.352 199.308v10.512h-1.047v-10.512h1.047Z" fill="#484848"/></g><path d="M132.357 259.708v6.65h-1.137v-6.65h1.137Zm2.088 0v.913h-5.294v-.913h5.294Zm1.854-.366v7.016h-1.096v-7.016h1.096Zm-.192 4.362-.356-.004c.003-.341.05-.657.142-.946.094-.289.225-.54.393-.753a1.737 1.737 0 0 1 1.402-.676c.244 0 .463.033.658.1.198.067.368.175.511.324a1.4 1.4 0 0 1 .325.576c.076.234.114.521.114.859v3.174h-1.106v-3.184c0-.237-.035-.426-.105-.566a.605.605 0 0 0-.297-.301 1.082 1.082 0 0 0-.479-.096c-.198 0-.373.039-.525.118-.15.08-.275.188-.375.325a1.464 1.464 0 0 0-.228.475 2.172 2.172 0 0 0-.074.575Zm6.482 2.745a2.63 2.63 0 0 1-.991-.178 2.168 2.168 0 0 1-.749-.507 2.253 2.253 0 0 1-.471-.762 2.69 2.69 0 0 1-.164-.946v-.183c0-.386.056-.737.169-1.05.113-.314.269-.582.47-.804.201-.226.439-.398.713-.516.274-.119.571-.178.891-.178.353 0 .662.059.927.178.265.118.484.286.658.502.176.213.307.468.392.763.089.295.133.621.133.977v.471h-3.819v-.79h2.732v-.087a1.542 1.542 0 0 0-.119-.557.95.95 0 0 0-.324-.421c-.146-.106-.341-.159-.585-.159a.994.994 0 0 0-.489.118.964.964 0 0 0-.351.334 1.736 1.736 0 0 0-.22.53 3.01 3.01 0 0 0-.073.689v.183c0 .216.029.417.087.603.061.183.149.343.265.48.116.137.256.245.42.324.165.076.352.114.562.114.265 0 .501-.053.708-.16.207-.106.387-.257.539-.452l.58.562a2.235 2.235 0 0 1-.416.447c-.17.141-.379.255-.625.343a2.5 2.5 0 0 1-.85.132Zm4.207-.63 1.343-4.403h1.178l-1.982 5.696a3.925 3.925 0 0 1-.178.397 1.8 1.8 0 0 1-.288.407c-.116.131-.26.236-.434.315a1.465 1.465 0 0 1-.63.123c-.098 0-.192-.009-.283-.027a4.498 4.498 0 0 1-.252-.05l-.004-.841a4.011 4.011 0 0 0 .219.014c.183 0 .335-.023.457-.069a.624.624 0 0 0 .297-.21c.079-.097.146-.228.201-.393l.356-.959Zm-.758-4.403 1.174 3.7.196 1.16-.763.196-1.795-5.056h1.188Zm7.345.941v4.001h-1.101v-4.942h1.05l.051.941Zm1.512-.973-.01 1.023a2.896 2.896 0 0 0-.447-.036c-.189 0-.355.027-.498.082a.933.933 0 0 0-.58.584c-.052.14-.082.297-.092.471l-.251.018c0-.31.031-.598.092-.863a2.33 2.33 0 0 1 .274-.699c.124-.201.28-.358.465-.47a1.25 1.25 0 0 1 .654-.169 1.373 1.373 0 0 1 .393.059Zm2.777 5.065c-.366 0-.696-.059-.992-.178a2.168 2.168 0 0 1-.749-.507 2.25 2.25 0 0 1-.47-.762 2.668 2.668 0 0 1-.165-.946v-.183c0-.386.057-.737.169-1.05.113-.314.27-.582.471-.804.201-.226.438-.398.713-.516.274-.119.57-.178.89-.178.353 0 .663.059.927.178.265.118.485.286.658.502.177.213.308.468.393.763.088.295.132.621.132.977v.471h-3.818v-.79h2.731v-.087a1.54 1.54 0 0 0-.118-.557.951.951 0 0 0-.325-.421c-.146-.106-.341-.159-.584-.159a.994.994 0 0 0-.489.118.975.975 0 0 0-.352.334 1.76 1.76 0 0 0-.219.53 2.955 2.955 0 0 0-.073.689v.183c0 .216.029.417.087.603.061.183.149.343.265.48.115.137.255.245.42.324.164.076.352.114.562.114.265 0 .501-.053.708-.16.207-.106.386-.257.539-.452l.58.562a2.265 2.265 0 0 1-.416.447c-.17.141-.379.255-.626.343a2.494 2.494 0 0 1-.849.132Zm4.855-.877c.18 0 .341-.035.484-.105a.914.914 0 0 0 .352-.301.826.826 0 0 0 .151-.443h1.037a1.54 1.54 0 0 1-.284.872 1.951 1.951 0 0 1-.726.626 2.188 2.188 0 0 1-1 .228c-.378 0-.707-.063-.987-.191a1.96 1.96 0 0 1-.699-.539 2.4 2.4 0 0 1-.42-.791 3.27 3.27 0 0 1-.137-.959v-.16c0-.341.046-.66.137-.959a2.4 2.4 0 0 1 .42-.795c.186-.228.419-.406.699-.534.28-.131.608-.196.982-.196.396 0 .743.079 1.042.237.298.155.533.373.703.653.174.277.264.6.27.969h-1.037a1.106 1.106 0 0 0-.137-.494.904.904 0 0 0-.338-.356.966.966 0 0 0-.516-.132 1.02 1.02 0 0 0-.553.137.928.928 0 0 0-.343.365 1.795 1.795 0 0 0-.178.516c-.033.189-.05.385-.05.589v.16c0 .204.017.402.05.594.034.192.092.364.174.516.085.149.201.27.347.361.146.088.332.132.557.132Zm5.047.877c-.365 0-.695-.059-.991-.178a2.168 2.168 0 0 1-.749-.507 2.235 2.235 0 0 1-.47-.762 2.668 2.668 0 0 1-.165-.946v-.183c0-.386.057-.737.169-1.05.113-.314.27-.582.471-.804.201-.226.438-.398.712-.516.274-.119.571-.178.891-.178.353 0 .662.059.927.178.265.118.484.286.658.502.177.213.308.468.393.763.088.295.132.621.132.977v.471h-3.818v-.79h2.731v-.087a1.52 1.52 0 0 0-.119-.557.95.95 0 0 0-.324-.421c-.146-.106-.341-.159-.585-.159a.993.993 0 0 0-.488.118.967.967 0 0 0-.352.334 1.76 1.76 0 0 0-.219.53 2.955 2.955 0 0 0-.073.689v.183c0 .216.029.417.086.603.061.183.15.343.265.48.116.137.256.245.421.324.164.076.351.114.561.114.265 0 .501-.053.708-.16.207-.106.387-.257.539-.452l.581.562a2.058 2.058 0 0 1-1.042.79 2.5 2.5 0 0 1-.85.132Zm4.015-5.033v4.942h-1.105v-4.942h1.105Zm-1.178-1.297c0-.168.055-.306.164-.416.113-.113.268-.169.466-.169.195 0 .349.056.462.169.112.11.169.248.169.416a.554.554 0 0 1-.169.411c-.113.109-.267.164-.462.164-.198 0-.353-.055-.466-.164a.56.56 0 0 1-.164-.411Zm3.992 5.367 1.211-4.07h1.142l-1.718 4.942h-.712l.077-.872Zm-.927-4.07 1.233 4.088.06.854h-.713l-1.727-4.942h1.147Zm6.075 5.033a2.63 2.63 0 0 1-.991-.178 2.159 2.159 0 0 1-.749-.507 2.253 2.253 0 0 1-.471-.762 2.69 2.69 0 0 1-.164-.946v-.183c0-.386.056-.737.169-1.05.112-.314.269-.582.47-.804.201-.226.439-.398.713-.516.274-.119.571-.178.891-.178.353 0 .662.059.927.178.265.118.484.286.658.502.176.213.307.468.392.763.089.295.133.621.133.977v.471h-3.819v-.79h2.732v-.087a1.542 1.542 0 0 0-.119-.557.95.95 0 0 0-.324-.421c-.147-.106-.341-.159-.585-.159a.994.994 0 0 0-.489.118.964.964 0 0 0-.351.334 1.736 1.736 0 0 0-.22.53 3.01 3.01 0 0 0-.073.689v.183c0 .216.029.417.087.603.061.183.149.343.265.48.116.137.256.245.42.324.165.076.352.114.562.114.265 0 .501-.053.708-.16.207-.106.387-.257.539-.452l.58.562a2.265 2.265 0 0 1-.416.447c-.17.141-.379.255-.625.343a2.5 2.5 0 0 1-.85.132Z" fill="#484848"/><g filter="url(#g)"><rect x="116.473" y="276.068" width="267.388" height="68.601" rx="6.236" fill="#fff"/><path d="M131.564 299.909v8.868h-1.827v-8.868h1.827Zm5.311 0-3.514 4.379-2.028 2.181-.329-1.73 1.37-1.876 2.26-2.954h2.241Zm-2.077 8.868-2.613-4.099 1.352-1.133 3.423 5.232h-2.162Zm8.819-1.425v1.425h-4.72v-1.425h4.72Zm-4.123-7.443v8.868h-1.827v-8.868h1.827Zm3.508 3.612v1.389h-4.105v-1.389h4.105Zm.609-3.612v1.432h-4.714v-1.432h4.714Zm5.688 6.547c0-.158-.024-.3-.073-.426a.803.803 0 0 0-.256-.353 2.26 2.26 0 0 0-.53-.323 7.574 7.574 0 0 0-.883-.329c-.402-.13-.783-.276-1.145-.438a4.7 4.7 0 0 1-.95-.567 2.545 2.545 0 0 1-.645-.761 2.089 2.089 0 0 1-.232-1.005c0-.369.081-.704.244-1.005.162-.304.39-.564.682-.779.292-.22.637-.388 1.035-.506a4.682 4.682 0 0 1 1.322-.176c.654 0 1.224.117 1.711.353.487.235.865.558 1.133.968.272.41.408.879.408 1.407h-1.815c0-.26-.055-.487-.164-.682a1.114 1.114 0 0 0-.488-.469c-.215-.114-.487-.171-.816-.171-.316 0-.58.049-.791.147-.211.093-.37.221-.475.383a.943.943 0 0 0-.159.536c0 .15.037.286.11.408.077.122.191.236.341.341.15.106.335.205.554.299.219.093.473.185.761.274.484.146.908.31 1.273.493.37.183.678.388.926.615.248.228.434.485.56.774.126.288.189.615.189.98 0 .386-.075.731-.225 1.036a2.13 2.13 0 0 1-.652.773 3.052 3.052 0 0 1-1.017.481 4.91 4.91 0 0 1-1.322.165c-.438 0-.87-.057-1.297-.171a3.934 3.934 0 0 1-1.163-.53 2.668 2.668 0 0 1-.828-.901c-.207-.366-.311-.798-.311-1.297h1.833c0 .276.043.509.128.7.085.191.205.345.36.463.158.118.345.203.56.256.219.053.459.079.718.079.317 0 .577-.045.78-.134a.961.961 0 0 0 .457-.372.975.975 0 0 0 .152-.536Z" fill="#484848"/><path d="M133.353 316.126h1.142v4.445c0 .505-.11.928-.329 1.269a2.052 2.052 0 0 1-.895.772 2.99 2.99 0 0 1-1.256.256c-.478 0-.905-.085-1.279-.256a2.029 2.029 0 0 1-.886-.772c-.213-.341-.32-.764-.32-1.269v-4.445h1.142v4.445c0 .319.055.583.164.79.11.204.265.355.466.452.201.098.439.146.713.146.274 0 .51-.048.708-.146.201-.097.356-.248.466-.452.109-.207.164-.471.164-.79v-4.445Zm5.888 4.938a.966.966 0 0 0-.064-.365.717.717 0 0 0-.215-.293 1.787 1.787 0 0 0-.438-.256 5.802 5.802 0 0 0-.713-.26 7.818 7.818 0 0 1-.877-.324 3.357 3.357 0 0 1-.694-.42 1.795 1.795 0 0 1-.461-.553 1.542 1.542 0 0 1-.165-.726c0-.271.057-.518.169-.74.116-.223.279-.415.489-.576.213-.164.464-.291.754-.379.289-.091.609-.137.959-.137.493 0 .918.091 1.274.274.36.183.635.428.827.735.195.308.292.647.292 1.019h-1.137c0-.219-.047-.413-.142-.58a.952.952 0 0 0-.42-.402c-.186-.098-.422-.146-.708-.146a1.63 1.63 0 0 0-.676.123.892.892 0 0 0-.402.334.873.873 0 0 0-.132.475c0 .124.029.239.086.342a.957.957 0 0 0 .265.283c.119.086.268.166.448.242.18.077.391.15.635.22.368.109.69.231.964.365.274.131.502.28.685.448.183.167.32.358.411.571.091.21.137.449.137.717 0 .28-.056.533-.169.758a1.64 1.64 0 0 1-.484.571 2.32 2.32 0 0 1-.749.361c-.29.082-.612.123-.969.123-.319 0-.635-.042-.945-.128a2.772 2.772 0 0 1-.841-.388 2.027 2.027 0 0 1-.603-.658 1.86 1.86 0 0 1-.223-.927h1.146c0 .216.037.4.11.553.076.152.181.277.315.374.134.095.289.165.466.21.179.046.371.069.575.069.268 0 .492-.038.672-.114a.882.882 0 0 0 .411-.32.838.838 0 0 0 .137-.475Zm4.097 1.713h-1.42l.009-.909h1.411c.411 0 .755-.09 1.032-.27.281-.179.491-.437.631-.772.143-.335.215-.733.215-1.196v-.361c0-.359-.042-.678-.124-.955a1.877 1.877 0 0 0-.356-.699 1.49 1.49 0 0 0-.576-.429 1.957 1.957 0 0 0-.781-.146h-1.489v-.914h1.489c.442 0 .845.075 1.211.224.365.146.68.358.945.635.268.277.474.609.617.996.143.386.215.819.215 1.297v.352c0 .478-.072.91-.215 1.297a2.817 2.817 0 0 1-.617.996 2.772 2.772 0 0 1-.959.635 3.333 3.333 0 0 1-1.238.219Zm-.785-6.651v6.651h-1.147v-6.651h1.147Zm10.126-.023v6.674h-1.101v-5.367l-1.63.552v-.908l2.599-.951h.132Zm8.756 2.207v.904h-3.964v-.904h3.964Zm0 1.936v.905h-3.964v-.905h3.964Zm4.797-4.12v6.651h-1.147v-6.651h1.147Zm3.996 0-2.695 3.202-1.534 1.626-.201-1.137 1.096-1.352 1.937-2.339h1.397Zm-1.233 6.651-2.188-3.152.79-.781 2.759 3.933h-1.361Zm6.354-.909v.909h-3.531v-.909h3.531Zm-3.207-5.742v6.651h-1.146v-6.651h1.146Zm2.745 2.777v.896h-3.069v-.896h3.069Zm.439-2.777v.914h-3.508v-.914h3.508Zm4.458 4.938a.966.966 0 0 0-.064-.365.717.717 0 0 0-.215-.293 1.787 1.787 0 0 0-.438-.256 5.802 5.802 0 0 0-.713-.26 7.818 7.818 0 0 1-.877-.324 3.357 3.357 0 0 1-.694-.42 1.795 1.795 0 0 1-.461-.553 1.542 1.542 0 0 1-.165-.726c0-.271.057-.518.169-.74.116-.223.279-.415.489-.576.213-.164.464-.291.754-.379.289-.091.609-.137.959-.137.493 0 .918.091 1.274.274.36.183.635.428.827.735.195.308.292.647.292 1.019h-1.137c0-.219-.047-.413-.142-.58a.952.952 0 0 0-.42-.402c-.186-.098-.422-.146-.708-.146a1.63 1.63 0 0 0-.676.123.892.892 0 0 0-.402.334.873.873 0 0 0-.132.475c0 .124.029.239.086.342a.957.957 0 0 0 .265.283c.119.086.268.166.448.242.18.077.391.15.635.22.368.109.69.231.964.365.274.131.502.28.685.448.183.167.32.358.411.571.091.21.137.449.137.717 0 .28-.056.533-.169.758a1.64 1.64 0 0 1-.484.571 2.32 2.32 0 0 1-.749.361c-.29.082-.612.123-.969.123-.319 0-.635-.042-.945-.128a2.772 2.772 0 0 1-.841-.388 2.027 2.027 0 0 1-.603-.658 1.86 1.86 0 0 1-.223-.927h1.146c0 .216.037.4.11.553.076.152.181.277.315.374.134.095.289.165.466.21.18.046.371.069.575.069.268 0 .492-.038.672-.114a.882.882 0 0 0 .411-.32.838.838 0 0 0 .137-.475Zm7.327-4.961v6.674h-1.101v-5.367l-1.631.552v-.908l2.599-.951h.133Zm6.769 5.797v.877h-4.458v-.754l2.165-2.361c.237-.268.425-.5.562-.695a2.26 2.26 0 0 0 .288-.525c.057-.158.086-.312.086-.461 0-.21-.039-.395-.118-.553a.876.876 0 0 0-.338-.379 1.004 1.004 0 0 0-.544-.142c-.247 0-.454.054-.621.16a.995.995 0 0 0-.379.443 1.508 1.508 0 0 0-.128.64h-1.101c0-.387.088-.74.265-1.06.177-.323.432-.579.767-.767.335-.192.739-.288 1.211-.288.444 0 .822.075 1.133.224.31.149.546.361.708.635.164.274.246.598.246.973 0 .207-.033.412-.1.616a2.913 2.913 0 0 1-.288.612 5.334 5.334 0 0 1-.434.608 11.08 11.08 0 0 1-.553.612l-1.439 1.585h3.07Zm5.317 0v.877h-4.458v-.754l2.165-2.361c.237-.268.425-.5.562-.695.137-.195.233-.37.287-.525.058-.158.087-.312.087-.461 0-.21-.039-.395-.119-.553a.863.863 0 0 0-.338-.379.998.998 0 0 0-.543-.142c-.247 0-.454.054-.621.16a1.004 1.004 0 0 0-.38.443 1.523 1.523 0 0 0-.127.64h-1.101c0-.387.088-.74.265-1.06.176-.323.432-.579.767-.767.335-.192.739-.288 1.211-.288.444 0 .822.075 1.132.224.311.149.547.361.708.635.165.274.247.598.247.973 0 .207-.034.412-.101.616a2.908 2.908 0 0 1-.287.612 5.334 5.334 0 0 1-.434.608 11.08 11.08 0 0 1-.553.612l-1.439 1.585h3.07Zm.968.329c0-.171.058-.314.174-.43a.627.627 0 0 1 .47-.178c.201 0 .358.06.471.178a.587.587 0 0 1 .173.43c0 .17-.058.313-.173.429-.113.116-.27.174-.471.174-.198 0-.355-.058-.47-.174a.583.583 0 0 1-.174-.429Zm6.911-6.103v.603l-2.658 6.048h-1.161l2.654-5.774h-3.444v-.877h4.609Zm5.248 4.837c0 .415-.096.763-.287 1.046a1.806 1.806 0 0 1-.786.645c-.329.143-.7.214-1.115.214-.414 0-.787-.071-1.119-.214a1.803 1.803 0 0 1-.785-.645c-.192-.283-.288-.631-.288-1.046a1.666 1.666 0 0 1 .612-1.324c.198-.165.429-.291.694-.379a2.77 2.77 0 0 1 .877-.133c.421 0 .797.078 1.129.233.331.156.592.37.781.644.191.274.287.594.287.959Zm-1.105-.054c0-.223-.046-.418-.137-.585a.956.956 0 0 0-.384-.388 1.146 1.146 0 0 0-.571-.137c-.219 0-.409.045-.571.137a.976.976 0 0 0-.379.388 1.237 1.237 0 0 0-.132.585c0 .225.044.42.132.584a.89.89 0 0 0 .379.37c.165.086.358.128.58.128.223 0 .415-.042.576-.128a.898.898 0 0 0 .375-.37 1.22 1.22 0 0 0 .132-.584Zm.955-3.033c0 .332-.089.627-.265.886a1.782 1.782 0 0 1-.722.612 2.424 2.424 0 0 1-1.051.219 2.46 2.46 0 0 1-1.059-.219 1.817 1.817 0 0 1-.727-.612 1.558 1.558 0 0 1-.26-.886c0-.396.087-.73.26-1.001.177-.274.419-.482.727-.625a2.458 2.458 0 0 1 1.055-.215c.396 0 .747.071 1.055.215.308.143.548.351.722.625.176.271.265.605.265 1.001Zm-1.101.036c0-.198-.04-.371-.119-.52a.856.856 0 0 0-.324-.357.941.941 0 0 0-.498-.128.959.959 0 0 0-.498.124.83.83 0 0 0-.324.347 1.162 1.162 0 0 0-.115.534c0 .204.039.382.115.535a.858.858 0 0 0 .324.351.956.956 0 0 0 .502.128.932.932 0 0 0 .498-.128.86.86 0 0 0 .325-.351c.076-.153.114-.331.114-.535Z" fill="#6F46EA"/><path d="M366.747 303.564v1.534c0 .666-.071 1.241-.213 1.724-.142.479-.347.873-.615 1.181-.264.305-.579.53-.944.676-.365.147-.771.22-1.218.22-.357 0-.69-.045-.999-.134a2.532 2.532 0 0 1-.834-.433 2.74 2.74 0 0 1-.634-.737 3.801 3.801 0 0 1-.402-1.072 6.538 6.538 0 0 1-.14-1.425v-1.534c0-.666.071-1.237.214-1.712.146-.479.351-.871.615-1.175a2.41 2.41 0 0 1 .95-.67 3.253 3.253 0 0 1 1.218-.219c.357 0 .688.046.993.14.308.089.586.229.834.42.248.191.459.436.633.737.175.296.309.651.402 1.066.094.41.14.881.14 1.413Zm-1.76 1.766v-2.004c0-.321-.018-.601-.055-.84a2.437 2.437 0 0 0-.152-.609 1.281 1.281 0 0 0-.256-.415.936.936 0 0 0-.347-.231 1.216 1.216 0 0 0-.432-.073c-.199 0-.376.038-.53.116a.991.991 0 0 0-.384.371c-.105.167-.186.39-.243.67a5.469 5.469 0 0 0-.079 1.011v2.004c0 .321.016.603.048.846.037.244.09.453.159.628.073.17.158.31.255.42a.935.935 0 0 0 .348.231c.134.049.28.073.438.073.195 0 .367-.038.518-.115.154-.082.284-.207.389-.378.11-.175.191-.402.244-.682.053-.28.079-.621.079-1.023Zm4.452-5.421v10.512h-1.047v-10.512h1.047Z" fill="#484848"/></g><rect x="116.473" y="357.141" width="267.388" height="46.773" rx="6.236" fill="#E6E6E6"/><path d="M211.616 372.313v13.301h-2.741l-5.344-8.916v8.916h-2.741v-13.301h2.741l5.353 8.925v-8.925h2.732Zm7.081 13.484c-.767 0-1.455-.122-2.064-.365a4.533 4.533 0 0 1-1.554-1.033 4.583 4.583 0 0 1-.968-1.525 5.146 5.146 0 0 1-.338-1.864v-.365c0-.75.107-1.435.32-2.056a4.85 4.85 0 0 1 .913-1.617c.402-.457.89-.807 1.462-1.05.573-.25 1.218-.375 1.937-.375.7 0 1.321.116 1.863.347.542.232.996.56 1.362.987.371.426.651.938.84 1.535a6.45 6.45 0 0 1 .283 1.973v1.096h-7.856v-1.754h5.271v-.201c0-.365-.067-.691-.201-.977a1.553 1.553 0 0 0-.585-.695c-.262-.17-.597-.256-1.005-.256a1.69 1.69 0 0 0-.895.229c-.25.152-.454.365-.612.639a3.48 3.48 0 0 0-.347.969 6.16 6.16 0 0 0-.11 1.206v.365c0 .396.055.761.165 1.096.115.335.277.625.484.868.213.244.469.433.767.567.305.134.649.2 1.033.2.475 0 .916-.091 1.324-.274a2.862 2.862 0 0 0 1.069-.849l1.279 1.388c-.207.299-.49.585-.85.859-.353.274-.779.5-1.279.676-.499.171-1.068.256-1.708.256Zm7.986-10.067 1.635 3.005 1.681-3.005h2.804l-2.795 4.832 2.923 5.052h-2.813l-1.782-3.179-1.781 3.179h-2.814l2.923-5.052-2.795-4.832h2.814Zm12.553 0v1.863h-5.755v-1.863h5.755Zm-4.33-2.439h2.631v9.345c0 .286.036.506.109.658.08.152.195.259.348.32.152.054.344.082.575.082.165 0 .311-.006.439-.018.134-.019.246-.037.338-.055l.009 1.936a4.893 4.893 0 0 1-.731.174 5.379 5.379 0 0 1-.868.064c-.579 0-1.084-.094-1.516-.283a2.087 2.087 0 0 1-.987-.932c-.231-.426-.347-.987-.347-1.681v-9.61Zm11.23 7.116v-.201c0-1.285.134-2.451.402-3.499.274-1.047.633-1.967 1.078-2.759.45-.798.941-1.458 1.47-1.982.53-.524 1.057-.901 1.581-1.133l.502 1.389c-.347.256-.688.609-1.023 1.059-.335.445-.639.993-.913 1.645-.268.645-.485 1.407-.649 2.284-.164.871-.247 1.863-.247 2.978v.237c0 1.115.083 2.111.247 2.988.164.871.381 1.632.649 2.283.274.658.578 1.212.913 1.663.335.451.676.807 1.023 1.069l-.502 1.352c-.524-.231-1.051-.609-1.581-1.133-.529-.517-1.02-1.175-1.47-1.973-.445-.792-.804-1.711-1.078-2.759-.268-1.054-.402-2.223-.402-3.508Zm13.037-8.121v13.328h-2.631v-10.295l-3.161 1.005v-2.074l5.509-1.964h.283Zm13.741 11.273v2.055h-9.099v-1.754l4.303-4.613c.432-.481.773-.905 1.023-1.27.25-.371.429-.703.539-.996.116-.298.174-.581.174-.849 0-.402-.067-.746-.201-1.033a1.502 1.502 0 0 0-.594-.676c-.256-.158-.573-.237-.95-.237-.402 0-.749.097-1.042.292a1.86 1.86 0 0 0-.657.813c-.147.347-.22.74-.22 1.179h-2.64c0-.792.189-1.517.567-2.175.377-.663.91-1.19 1.598-1.58.689-.396 1.505-.594 2.449-.594.931 0 1.717.152 2.357.457.645.298 1.132.731 1.461 1.297.335.561.503 1.23.503 2.01 0 .439-.07.868-.21 1.288-.14.414-.341.828-.603 1.243a10.05 10.05 0 0 1-.932 1.242c-.366.42-.771.856-1.215 1.306l-2.311 2.595h5.7Zm10.909-5.765v2.302c0 .999-.107 1.861-.32 2.586-.213.718-.52 1.309-.922 1.772a3.638 3.638 0 0 1-1.416 1.014 4.892 4.892 0 0 1-1.828.329 5.37 5.37 0 0 1-1.498-.201 3.749 3.749 0 0 1-1.251-.649 4.097 4.097 0 0 1-.95-1.105c-.262-.451-.463-.987-.603-1.608-.14-.621-.21-1.334-.21-2.138v-2.302c0-.998.106-1.854.319-2.567.22-.718.527-1.306.923-1.763a3.627 3.627 0 0 1 1.425-1.005 4.883 4.883 0 0 1 1.827-.329c.536 0 1.033.07 1.489.21.463.134.88.345 1.252.631.371.286.688.655.95 1.105.262.445.463.978.603 1.599.14.615.21 1.322.21 2.119Zm-2.64 2.65v-3.006c0-.481-.028-.901-.082-1.261a3.693 3.693 0 0 0-.229-.913 1.916 1.916 0 0 0-.383-.621 1.41 1.41 0 0 0-.521-.348 1.837 1.837 0 0 0-.649-.109c-.298 0-.563.058-.795.173a1.48 1.48 0 0 0-.575.558c-.158.249-.28.584-.366 1.005a8.246 8.246 0 0 0-.118 1.516v3.006c0 .481.024.904.073 1.269.055.366.134.679.237.941.11.256.238.466.384.631.152.158.326.274.521.347.201.073.42.109.657.109.293 0 .552-.057.777-.173.231-.122.426-.311.585-.566.164-.262.286-.603.365-1.024.079-.42.119-.931.119-1.534Zm10.196 2.439a.859.859 0 0 0-.164-.512c-.11-.152-.314-.292-.612-.42-.293-.134-.716-.256-1.27-.365-.5-.11-.965-.247-1.398-.412a4.799 4.799 0 0 1-1.114-.612 2.64 2.64 0 0 1-.731-.84 2.335 2.335 0 0 1-.265-1.124c0-.414.088-.804.265-1.169.182-.366.441-.688.776-.968a3.65 3.65 0 0 1 1.243-.667 5.22 5.22 0 0 1 1.662-.247c.859 0 1.596.137 2.211.411.621.274 1.096.652 1.425 1.133.335.475.503 1.017.503 1.626h-2.631c0-.256-.055-.484-.165-.685a1.08 1.08 0 0 0-.493-.484c-.219-.122-.506-.183-.859-.183-.292 0-.545.052-.758.155a1.166 1.166 0 0 0-.493.402.965.965 0 0 0-.165.548.9.9 0 0 0 .092.411.99.99 0 0 0 .319.32c.147.098.335.189.567.274.237.079.53.153.877.219.712.147 1.349.339 1.909.576.56.231 1.005.548 1.334.95.329.396.493.917.493 1.562 0 .439-.097.841-.292 1.206a2.9 2.9 0 0 1-.841.959 4.274 4.274 0 0 1-1.315.631 6.157 6.157 0 0 1-1.708.219c-.92 0-1.7-.164-2.339-.493-.634-.329-1.115-.746-1.444-1.252-.322-.511-.484-1.035-.484-1.571h2.494c.012.359.104.648.274.868.177.219.399.377.667.475.274.097.57.146.886.146.341 0 .625-.046.85-.137.225-.098.396-.225.511-.384a.924.924 0 0 0 .183-.566Zm9.1-2.677v.201c0 1.242-.14 2.387-.42 3.435-.28 1.041-.652 1.964-1.114 2.768-.457.81-.96 1.483-1.508 2.019-.542.536-1.084.92-1.626 1.151l-.511-1.352c.347-.256.685-.609 1.014-1.06.335-.45.639-1.005.913-1.662.274-.652.49-1.416.649-2.293.164-.877.246-1.873.246-2.988v-.237c0-1.115-.082-2.11-.246-2.987-.165-.877-.387-1.642-.667-2.293-.274-.658-.579-1.209-.914-1.654-.329-.451-.661-.804-.995-1.06l.511-1.361c.542.232 1.084.618 1.626 1.16.548.536 1.051 1.206 1.508 2.01.462.804.834 1.73 1.114 2.777.28 1.042.42 2.184.42 3.426Z" fill="#fff"/><g filter="url(#h)"><path fill="#FAFAFA" d="M104 60.092h292.334v68.601H104z"/><path d="M132.065 110.763h-9.488l4.358-4.357-1.107-1.1-6.236 6.237 6.236 6.236 1.099-1.099-4.35-4.358h9.488v-1.559Z" fill="#484848"/><g clip-path="url(#i)"><path d="m379.963 107.185-1.1-1.099-4.357 4.358-4.358-4.358-1.099 1.099 4.358 4.358-4.358 4.358 1.099 1.099 4.358-4.358 4.357 4.358 1.1-1.099-4.358-4.358 4.358-4.358Z" fill="#484848"/></g><path d="M217.318 105.88h3.307c.678 0 1.261.101 1.748.304.491.203.869.504 1.133.902s.396.887.396 1.468c0 .475-.081.883-.244 1.224a2.287 2.287 0 0 1-.676.846 3.484 3.484 0 0 1-1.017.536l-.579.305h-2.874l-.012-1.425h2.137c.321 0 .587-.057.798-.171.211-.114.37-.272.475-.475a1.46 1.46 0 0 0 .165-.706c0-.285-.053-.53-.159-.737a1.064 1.064 0 0 0-.481-.475c-.215-.11-.485-.165-.81-.165h-1.48v7.436h-1.827v-8.867Zm4.958 8.867-2.022-3.952 1.93-.012 2.047 3.879v.085h-1.955Zm6.268.122a3.69 3.69 0 0 1-1.377-.243 3.019 3.019 0 0 1-1.035-.689 3.067 3.067 0 0 1-.646-1.017 3.43 3.43 0 0 1-.225-1.242v-.244c0-.499.071-.956.213-1.37.142-.414.345-.774.609-1.078.268-.305.593-.538.975-.7.381-.167.812-.25 1.291-.25.467 0 .881.077 1.242.231.362.155.664.374.908.658.247.284.434.625.56 1.023.126.394.189.833.189 1.316v.731h-5.238v-1.17h3.514v-.134c0-.243-.044-.461-.134-.651a1.03 1.03 0 0 0-.389-.463c-.175-.114-.398-.171-.67-.171-.232 0-.431.051-.597.152a1.172 1.172 0 0 0-.408.427 2.307 2.307 0 0 0-.232.645 4.17 4.17 0 0 0-.073.804v.244c0 .264.037.507.11.731.077.223.185.416.323.578.142.163.312.289.511.378a1.7 1.7 0 0 0 .688.134c.317 0 .611-.061.883-.183.277-.126.514-.315.713-.566l.853.925c-.138.199-.327.39-.567.573a3.013 3.013 0 0 1-.852.451c-.333.113-.713.17-1.139.17Zm5.768-5.347v5.225h-1.76v-6.589h1.651l.109 1.364Zm-.243 1.699h-.487c0-.459.054-.881.164-1.267.114-.389.278-.726.493-1.011.22-.288.49-.511.81-.67a2.496 2.496 0 0 1 1.115-.237c.292 0 .56.045.804.134.243.085.453.221.627.408.179.183.317.422.414.719.098.292.146.643.146 1.053v4.397h-1.754v-4.202c0-.3-.04-.532-.121-.694a.69.69 0 0 0-.348-.341 1.294 1.294 0 0 0-.529-.098c-.228 0-.427.047-.597.14a1.187 1.187 0 0 0-.414.39 1.74 1.74 0 0 0-.244.573 2.994 2.994 0 0 0-.079.706Zm3.922-.201-.627.079c0-.43.052-.83.158-1.2.11-.369.27-.694.481-.974.215-.28.481-.497.798-.652a2.425 2.425 0 0 1 1.096-.237c.317 0 .605.047.865.14.26.089.481.233.664.432.187.195.329.451.426.768.102.316.152.704.152 1.163v4.208h-1.76v-4.208c0-.305-.04-.536-.121-.694a.64.64 0 0 0-.341-.335 1.286 1.286 0 0 0-.524-.098c-.211 0-.396.043-.554.128a1.093 1.093 0 0 0-.396.341 1.558 1.558 0 0 0-.238.512 2.34 2.34 0 0 0-.079.627Zm7.535-2.862v6.589h-1.76v-6.589h1.76Zm-1.87-1.718c0-.256.089-.467.268-.633.179-.167.418-.25.719-.25.296 0 .534.083.712.25a.817.817 0 0 1 .274.633.82.82 0 0 1-.274.634c-.178.166-.416.249-.712.249-.301 0-.54-.083-.719-.249a.829.829 0 0 1-.268-.634Zm6.859 1.718v1.242h-3.837v-1.242h3.837Zm-2.887-1.626h1.754v6.23c0 .191.025.337.073.438a.44.44 0 0 0 .232.214c.101.036.229.054.383.054.11 0 .208-.004.293-.012a3.88 3.88 0 0 0 .225-.036l.006 1.291a3.31 3.31 0 0 1-1.066.158c-.385 0-.722-.063-1.011-.189a1.392 1.392 0 0 1-.657-.621c-.155-.284-.232-.658-.232-1.12v-6.407Zm7.426 1.626v1.242h-3.837v-1.242h3.837Zm-2.887-1.626h1.754v6.23c0 .191.024.337.073.438.053.102.13.173.231.214.102.036.23.054.384.054.11 0 .207-.004.292-.012.09-.012.165-.024.226-.036l.006 1.291a3.356 3.356 0 0 1-1.066.158c-.386 0-.723-.063-1.011-.189a1.394 1.394 0 0 1-.658-.621c-.154-.284-.231-.658-.231-1.12v-6.407Zm7.754 6.729v-2.935a1.29 1.29 0 0 0-.104-.542.771.771 0 0 0-.322-.36c-.143-.085-.327-.127-.555-.127-.195 0-.363.034-.505.103a.73.73 0 0 0-.329.286.794.794 0 0 0-.116.433h-1.754c0-.28.065-.546.195-.798s.319-.473.567-.664c.247-.195.542-.347.883-.457.345-.109.73-.164 1.157-.164.511 0 .966.085 1.364.256.398.17.711.426.938.767.231.341.347.767.347 1.279v2.82c0 .361.022.658.067.889.045.227.11.426.195.597v.103h-1.772a2.475 2.475 0 0 1-.195-.67 5.467 5.467 0 0 1-.061-.816Zm.231-2.527.012.993h-.98c-.231 0-.432.026-.603.079a1.122 1.122 0 0 0-.42.225.867.867 0 0 0-.244.329 1.133 1.133 0 0 0-.073.414c0 .15.035.286.104.408a.734.734 0 0 0 .298.28c.13.065.282.098.457.098.264 0 .493-.053.688-.159.195-.105.345-.235.451-.389a.816.816 0 0 0 .17-.439l.463.743a2.985 2.985 0 0 1-.268.518c-.109.178-.25.347-.42.505a2.177 2.177 0 0 1-.615.384c-.24.097-.524.146-.853.146-.418 0-.798-.083-1.139-.25a2.075 2.075 0 0 1-.804-.7 1.835 1.835 0 0 1-.292-1.023c0-.345.065-.652.195-.92s.321-.493.572-.676a2.68 2.68 0 0 1 .957-.42 5.412 5.412 0 0 1 1.327-.146h1.017Zm4.916-1.169v5.182h-1.754v-6.589h1.645l.109 1.407Zm-.255 1.656h-.475c0-.487.062-.926.188-1.315.126-.394.303-.729.53-1.005.228-.28.498-.494.81-.64.317-.15.67-.225 1.06-.225.309 0 .591.045.846.134.256.089.476.231.658.426.187.195.329.453.427.774.101.32.152.712.152 1.175v4.202h-1.766v-4.208c0-.292-.041-.52-.122-.682a.68.68 0 0 0-.36-.341 1.399 1.399 0 0 0-.572-.104 1.29 1.29 0 0 0-.615.14 1.222 1.222 0 0 0-.426.39c-.11.163-.193.353-.25.573a2.794 2.794 0 0 0-.085.706Zm8.564 2.278c.215 0 .406-.041.572-.122a.96.96 0 0 0 .39-.353c.097-.154.148-.335.152-.542h1.651a2.19 2.19 0 0 1-.372 1.236c-.243.357-.57.64-.98.847a3.06 3.06 0 0 1-1.377.304c-.511 0-.958-.085-1.34-.256a2.621 2.621 0 0 1-.944-.706 3.115 3.115 0 0 1-.566-1.06 4.372 4.372 0 0 1-.189-1.303v-.177c0-.467.063-.901.189-1.303.126-.406.315-.759.566-1.06a2.59 2.59 0 0 1 .944-.712c.378-.171.821-.256 1.328-.256.54 0 1.013.103 1.419.31.41.208.731.504.962.89.236.381.356.834.36 1.358h-1.651a1.366 1.366 0 0 0-.14-.597 1.004 1.004 0 0 0-.377-.426 1.054 1.054 0 0 0-.603-.165c-.256 0-.465.055-.628.165a1.043 1.043 0 0 0-.377.438c-.09.183-.152.392-.189.627a5.185 5.185 0 0 0-.049.731v.177c0 .256.016.501.049.737.032.235.093.444.183.627.093.183.221.327.383.432.163.106.374.159.634.159Zm7.127 1.37a3.69 3.69 0 0 1-1.377-.243 3.019 3.019 0 0 1-1.035-.689 3.067 3.067 0 0 1-.646-1.017 3.43 3.43 0 0 1-.225-1.242v-.244c0-.499.071-.956.213-1.37.142-.414.345-.774.609-1.078.268-.305.593-.538.975-.7.381-.167.812-.25 1.291-.25.467 0 .881.077 1.242.231.362.155.664.374.908.658.247.284.434.625.56 1.023.126.394.189.833.189 1.316v.731h-5.238v-1.17h3.514v-.134a1.52 1.52 0 0 0-.134-.651 1.027 1.027 0 0 0-.39-.463c-.174-.114-.398-.171-.67-.171-.231 0-.43.051-.596.152a1.172 1.172 0 0 0-.408.427 2.307 2.307 0 0 0-.232.645 4.092 4.092 0 0 0-.073.804v.244c0 .264.037.507.11.731.077.223.184.416.322.578.143.163.313.289.512.378.203.089.432.134.688.134.317 0 .611-.061.883-.183.276-.126.514-.315.713-.566l.853.925c-.139.199-.327.39-.567.573-.235.183-.52.333-.852.451-.333.113-.713.17-1.139.17Z" fill="#B69FFB"/></g><g clip-path="url(#j)"><path fill="#fff" d="M108 427.092h286.504v36.673H108z"/><path fill="#F6F6F6" d="M108 427.092h286.504v36.673H108z"/><path d="M129.415 441.745h-1.352v4.176c0 1.424 1.053 2.395 2.709 2.395 1.652 0 2.704-.971 2.704-2.395v-4.176h-1.352v4.042c0 .828-.488 1.37-1.352 1.37-.869 0-1.357-.542-1.357-1.37v-4.042Zm4.898 4.619c.04 1.214 1.029 1.952 2.583 1.952 1.603 0 2.619-.792 2.619-2.046 0-.984-.564-1.54-1.858-1.817l-.783-.166c-.744-.17-1.057-.394-1.057-.792 0-.479.448-.797 1.115-.797.676 0 1.155.331 1.199.877h1.267c-.022-1.168-.967-1.942-2.471-1.942-1.441 0-2.471.787-2.471 1.978 0 .945.587 1.549 1.777 1.804l.842.184c.779.174 1.088.407 1.088.828 0 .475-.493.819-1.213.819-.717 0-1.272-.349-1.334-.882h-1.303Zm6.034-4.619v6.459h2.467c1.938 0 3.08-1.204 3.08-3.254 0-2.051-1.142-3.205-3.08-3.205h-2.467Zm1.352 1.114h.954c1.191 0 1.862.743 1.862 2.095 0 1.397-.653 2.131-1.862 2.131h-.954v-4.226Zm6.729.828v.023h1.253v-.023c0-.595.461-1.034 1.088-1.034.6 0 1.025.385 1.025.869 0 .447-.201.774-.855 1.428l-2.435 2.346v.908h4.696v-1.074h-2.915v-.027l1.576-1.518c.712-.707 1.249-1.311 1.249-2.117 0-1.079-.935-1.867-2.296-1.867-1.41 0-2.386.864-2.386 2.086Zm8.111 4.661c1.625 0 2.61-1.303 2.61-3.389s-.994-3.362-2.61-3.362c-1.616 0-2.614 1.28-2.614 3.366 0 2.091.989 3.385 2.614 3.385Zm0-1.084c-.77 0-1.24-.832-1.24-2.301 0-1.455.479-2.283 1.24-2.283.766 0 1.236.824 1.236 2.283 0 1.473-.466 2.301-1.236 2.301ZM201.122 441.745h-1.352v4.176c0 1.424 1.052 2.395 2.708 2.395 1.652 0 2.704-.971 2.704-2.395v-4.176h-1.352v4.042c0 .828-.488 1.37-1.352 1.37-.868 0-1.356-.542-1.356-1.37v-4.042Zm4.897 4.619c.041 1.214 1.03 1.952 2.583 1.952 1.603 0 2.619-.792 2.619-2.046 0-.984-.564-1.54-1.858-1.817l-.783-.166c-.743-.17-1.057-.394-1.057-.792 0-.479.448-.797 1.115-.797.676 0 1.155.331 1.2.877h1.267c-.023-1.168-.967-1.942-2.471-1.942-1.442 0-2.471.787-2.471 1.978 0 .945.586 1.549 1.777 1.804l.841.184c.779.174 1.088.407 1.088.828 0 .475-.492.819-1.213.819-.716 0-1.271-.349-1.334-.882h-1.303Zm6.035-4.619v6.459h2.466c1.939 0 3.08-1.204 3.08-3.254 0-2.051-1.141-3.205-3.08-3.205h-2.466Zm1.352 1.114h.953c1.191 0 1.863.743 1.863 2.095 0 1.397-.654 2.131-1.863 2.131h-.953v-4.226Zm9.289 5.489c1.482 0 2.493-.932 2.493-2.301 0-1.258-.886-2.167-2.122-2.167-.658 0-1.173.273-1.437.707h-.027l.148-1.768h3.049v-1.074h-4.11l-.318 3.715h1.209c.224-.371.645-.595 1.133-.595.698 0 1.186.501 1.186 1.217 0 .703-.488 1.196-1.195 1.196-.627 0-1.11-.376-1.187-.923h-1.249c.041 1.169 1.039 1.993 2.427 1.993Zm5.775 0c1.625 0 2.61-1.303 2.61-3.389s-.994-3.362-2.61-3.362c-1.616 0-2.615 1.28-2.615 3.366 0 2.091.99 3.385 2.615 3.385Zm0-1.084c-.77 0-1.24-.832-1.24-2.301 0-1.455.479-2.283 1.24-2.283.765 0 1.235.824 1.235 2.283 0 1.473-.465 2.301-1.235 2.301ZM270.615 441.745h-1.352v4.176c0 1.424 1.052 2.395 2.708 2.395 1.652 0 2.704-.971 2.704-2.395v-4.176h-1.352v4.042c0 .828-.488 1.37-1.352 1.37-.868 0-1.356-.542-1.356-1.37v-4.042Zm4.897 4.619c.041 1.214 1.03 1.952 2.583 1.952 1.603 0 2.619-.792 2.619-2.046 0-.984-.564-1.54-1.858-1.817l-.783-.166c-.743-.17-1.056-.394-1.056-.792 0-.479.447-.797 1.114-.797.676 0 1.155.331 1.2.877h1.267c-.023-1.168-.967-1.942-2.471-1.942-1.442 0-2.471.787-2.471 1.978 0 .945.586 1.549 1.777 1.804l.841.184c.779.174 1.088.407 1.088.828 0 .475-.492.819-1.213.819-.716 0-1.271-.349-1.334-.882h-1.303Zm6.035-4.619v6.459h2.466c1.939 0 3.08-1.204 3.08-3.254 0-2.051-1.141-3.205-3.08-3.205h-2.466Zm1.352 1.114h.953c1.191 0 1.863.743 1.863 2.095 0 1.397-.654 2.131-1.863 2.131h-.953v-4.226Zm8.42 5.345h1.339v-6.459h-1.343l-1.67 1.159v1.218l1.647-1.137h.027v5.219Zm5.319.144c1.625 0 2.609-1.303 2.609-3.389s-.993-3.362-2.609-3.362-2.615 1.28-2.615 3.366c0 2.091.99 3.385 2.615 3.385Zm0-1.084c-.77 0-1.24-.832-1.24-2.301 0-1.455.479-2.283 1.24-2.283.765 0 1.235.824 1.235 2.283 0 1.473-.465 2.301-1.235 2.301Zm5.971 1.084c1.625 0 2.61-1.303 2.61-3.389s-.994-3.362-2.61-3.362c-1.616 0-2.614 1.28-2.614 3.366 0 2.091.989 3.385 2.614 3.385Zm0-1.084c-.77 0-1.24-.832-1.24-2.301 0-1.455.479-2.283 1.24-2.283.766 0 1.236.824 1.236 2.283 0 1.473-.466 2.301-1.236 2.301ZM341.881 441.745h-1.352v4.176c0 1.424 1.052 2.395 2.708 2.395 1.652 0 2.704-.971 2.704-2.395v-4.176h-1.352v4.042c0 .828-.488 1.37-1.352 1.37-.868 0-1.356-.542-1.356-1.37v-4.042Zm4.897 4.619c.04 1.214 1.03 1.952 2.583 1.952 1.603 0 2.619-.792 2.619-2.046 0-.984-.564-1.54-1.858-1.817l-.783-.166c-.743-.17-1.057-.394-1.057-.792 0-.479.448-.797 1.115-.797.676 0 1.155.331 1.2.877h1.267c-.023-1.168-.967-1.942-2.472-1.942-1.441 0-2.471.787-2.471 1.978 0 .945.587 1.549 1.778 1.804l.841.184c.779.174 1.088.407 1.088.828 0 .475-.492.819-1.213.819-.716 0-1.271-.349-1.334-.882h-1.303Zm6.035-4.619v6.459h2.466c1.939 0 3.08-1.204 3.08-3.254 0-2.051-1.141-3.205-3.08-3.205h-2.466Zm1.352 1.114h.953c1.191 0 1.862.743 1.862 2.095 0 1.397-.653 2.131-1.862 2.131h-.953v-4.226Zm6.728.828v.023h1.253v-.023c0-.595.462-1.034 1.088-1.034.6 0 1.025.385 1.025.869 0 .447-.201.774-.855 1.428l-2.435 2.346v.908h4.696v-1.074h-2.914v-.027l1.576-1.518c.711-.707 1.249-1.311 1.249-2.117 0-1.079-.936-1.867-2.297-1.867-1.41 0-2.386.864-2.386 2.086Zm8.112 4.661c1.625 0 2.609-1.303 2.609-3.389s-.993-3.362-2.609-3.362-2.615 1.28-2.615 3.366c0 2.091.99 3.385 2.615 3.385Zm0-1.084c-.77 0-1.24-.832-1.24-2.301 0-1.455.479-2.283 1.24-2.283.765 0 1.235.824 1.235 2.283 0 1.473-.465 2.301-1.235 2.301Zm5.971 1.084c1.625 0 2.61-1.303 2.61-3.389s-.993-3.362-2.61-3.362c-1.616 0-2.614 1.28-2.614 3.366 0 2.091.989 3.385 2.614 3.385Zm0-1.084c-.77 0-1.24-.832-1.24-2.301 0-1.455.479-2.283 1.24-2.283.766 0 1.236.824 1.236 2.283 0 1.473-.466 2.301-1.236 2.301Z" fill="#6F46EA"/><path stroke="#CBCBCB" stroke-width=".764" d="M179.434 453.833v-16.809M251.253 453.833v-16.809M323.069 453.833v-16.809"/></g><g filter="url(#k)"><path fill="#D1D5DB" fill-opacity=".9" d="M108 463.765h286.504v222.327H108z"/><rect x="200.445" y="676.16" width="102.378" height="3.82" rx="1.91" fill="#000"/><g filter="url(#l)"><rect x="112.584" y="468.349" width="89.899" height="35.145" rx="3.514" fill="#fff"/></g><path d="M157.95 486.877h1.623v-13.458h-1.642l-3.581 2.574v1.772l3.562-2.565h.038v11.677Z" fill="#000"/><g filter="url(#m)"><rect x="206.303" y="468.349" width="89.899" height="35.145" rx="3.514" fill="#fff"/></g><path d="M245.684 497.105h1.22l-1.869-5.383h-1.324l-1.869 5.383h1.13l.414-1.283h1.892l.406 1.283Zm-1.38-4.264h.067l.668 2.111h-1.41l.675-2.111Zm7.463 4.264c1.149 0 1.862-.597 1.862-1.541 0-.694-.519-1.231-1.231-1.283v-.067c.552-.082.974-.578.974-1.149 0-.832-.623-1.343-1.668-1.343h-2.354v5.383h2.417Zm-1.29-4.521h.94c.537 0 .847.257.847.686 0 .433-.332.683-.941.683h-.846v-1.369Zm0 3.659v-1.529h.977c.664 0 1.026.261 1.026.753 0 .504-.351.776-1 .776h-1.003Zm7.985 1c1.298 0 2.246-.802 2.339-1.966h-1.097c-.108.593-.593.974-1.238.974-.851 0-1.377-.705-1.377-1.84 0-1.134.526-1.835 1.373-1.835.642 0 1.131.407 1.239 1.026h1.097c-.083-1.171-1.06-2.018-2.336-2.018-1.563 0-2.525 1.078-2.525 2.827 0 1.754.966 2.832 2.525 2.832ZM246.977 477.299v.009h1.623v-.009c0-1.502 1.194-2.64 2.77-2.64 1.483 0 2.667 1.036 2.667 2.332 0 1.119-.429 1.837-2.238 3.74l-4.738 4.989v1.157h8.879v-1.492h-6.556v-.038l3.404-3.516c2.247-2.322 2.928-3.441 2.928-4.943 0-2.061-1.893-3.693-4.299-3.693-2.537 0-4.44 1.753-4.44 4.104Z" fill="#000"/><g filter="url(#n)"><rect x="300.021" y="468.349" width="89.899" height="35.145" rx="3.514" fill="#fff"/></g><path d="M336.71 491.718v5.387h2.119c1.611 0 2.525-.981 2.525-2.731 0-1.686-.925-2.656-2.525-2.656h-2.119Zm1.126.963h.814c.977 0 1.555.623 1.555 1.712 0 1.138-.559 1.749-1.555 1.749h-.814v-3.461Zm9.676 3.461h-2.44v-1.309h2.302v-.892h-2.302v-1.257h2.44v-.962h-3.567v5.383h3.567v-.963Zm3.841.963v-2.097h2.19v-.921h-2.19v-1.403h2.399v-.962h-3.526v5.383h1.127ZM343.28 480.665h1.688c1.921 0 3.115.98 3.115 2.565 0 1.408-1.278 2.416-3.059 2.416-1.81 0-2.957-.952-3.106-2.332h-1.614c.122 2.229 1.922 3.787 4.738 3.787 2.64 0 4.747-1.614 4.747-3.927 0-1.893-1.305-3.152-3.339-3.273v-.038c1.679-.298 2.761-1.51 2.761-3.199 0-2.023-1.819-3.469-4.225-3.469-2.527 0-4.225 1.464-4.411 3.749h1.613c.15-1.408 1.175-2.294 2.724-2.294 1.706 0 2.611.905 2.611 2.238 0 1.362-1.082 2.36-2.63 2.36h-1.613v1.417Z" fill="#000"/><g filter="url(#o)"><rect x="112.584" y="508.841" width="89.899" height="35.145" rx="3.514" fill="#fff"/></g><path d="M154.402 535.4v-.686h-2.261v.847h1.168l-.004.097c-.022.649-.534 1.085-1.272 1.085-.888 0-1.448-.701-1.448-1.854 0-1.13.534-1.82 1.403-1.82.627 0 1.078.317 1.246.861h1.119c-.156-1.119-1.093-1.854-2.365-1.854-1.567 0-2.555 1.09-2.555 2.824 0 1.761.981 2.836 2.581 2.836 1.47 0 2.388-.896 2.388-2.336Zm7.288 2.198v-5.384h-1.127v2.172h-2.425v-2.172h-1.126v5.384h1.126v-2.25h2.425v2.25h1.127Zm3.96 0v-5.384h-1.127v5.384h1.127ZM159.367 527.369h1.623v-2.797h1.903v-1.474h-1.903v-9.186h-2.481c-3.18 4.56-4.756 7.013-5.903 9.139v1.521h6.761v2.797Zm-5.101-4.308c1.063-1.866 2.527-4.113 5.073-7.75h.028v7.787h-5.101v-.037Z" fill="#000"/><g filter="url(#p)"><rect x="206.303" y="508.841" width="89.899" height="35.145" rx="3.514" fill="#fff"/></g><path d="M242.853 536.016c0 1.056.724 1.72 1.828 1.72 1.141 0 1.828-.649 1.828-1.81v-3.712h-1.127v3.705c0 .53-.253.809-.716.809-.433 0-.716-.279-.724-.712h-1.089Zm7.62 1.582v-1.623l.533-.631 1.563 2.254h1.351l-2.1-3.022 1.962-2.362h-1.254l-1.988 2.399h-.067v-2.399h-1.127v5.384h1.127Zm9.347-.982h-2.395v-4.402h-1.126v5.384h3.521v-.982ZM251.51 527.593c2.807 0 4.794-1.893 4.794-4.598 0-2.611-1.866-4.504-4.449-4.504-1.287 0-2.406.485-3.012 1.296h-.038l.411-4.383h6.323v-1.492h-7.704l-.736 7.535h1.576c.55-.942 1.623-1.511 2.882-1.511 1.79 0 3.068 1.297 3.068 3.106s-1.268 3.078-3.096 3.078c-1.614 0-2.836-.989-2.985-2.425h-1.651c.14 2.294 2.043 3.898 4.617 3.898Z" fill="#000"/><g filter="url(#q)"><rect x="300.021" y="508.841" width="89.899" height="35.145" rx="3.514" fill="#fff"/></g><path d="M340.481 537.598v-5.384h-1.324l-1.492 3.619h-.067l-1.489-3.619h-1.328v5.384h1.045v-3.6h.059l1.373 3.29h.75l1.369-3.29h.06v3.6h1.044Zm3.912 0v-3.369h.067l2.485 3.369h.932v-5.384h-1.078v3.354h-.067l-2.477-3.354h-.94v5.384h1.078Zm8.676-5.522c-1.582 0-2.593 1.082-2.593 2.828 0 1.746.996 2.832 2.593 2.832 1.593 0 2.585-1.086 2.585-2.832 0-1.742-.996-2.828-2.585-2.828Zm0 .989c.876 0 1.436.713 1.436 1.839 0 1.123-.56 1.843-1.436 1.843-.884 0-1.44-.72-1.44-1.843 0-1.126.567-1.839 1.44-1.839ZM345.341 527.603c2.76 0 4.765-1.94 4.765-4.598 0-2.556-1.902-4.449-4.467-4.449-1.669 0-3.152.867-3.758 2.182h-.028c.056-3.581 1.333-5.577 3.581-5.577 1.334 0 2.415.784 2.779 2.005h1.707c-.429-2.117-2.182-3.488-4.467-3.488-3.293 0-5.223 2.658-5.223 7.191 0 1.455.214 2.667.662 3.703.83 1.939 2.434 3.031 4.449 3.031Zm-.019-1.493c-1.725 0-3.068-1.371-3.068-3.096 0-1.716 1.315-2.984 3.096-2.984 1.781 0 3.05 1.268 3.05 3.031 0 1.697-1.362 3.049-3.078 3.049Z" fill="#000"/><g filter="url(#r)"><rect x="112.584" y="549.334" width="89.899" height="35.145" rx="3.514" fill="#fff"/></g><path d="M145.21 572.707v5.383h1.127v-1.671h1.063c1.134 0 1.921-.742 1.921-1.85 0-1.12-.757-1.862-1.865-1.862h-2.246Zm1.127.925h.821c.649 0 1.018.329 1.018.94 0 .605-.377.933-1.022.933h-.817v-1.873Zm7.904 4.596c.339 0 .66-.048.943-.142l.373.53h1.09l-.668-1.014c.545-.467.847-1.239.847-2.205 0-1.746-1.004-2.828-2.585-2.828-1.582 0-2.593 1.082-2.593 2.828 0 1.757 1 2.831 2.593 2.831Zm.003-.988c-.88 0-1.443-.709-1.443-1.843 0-1.127.567-1.839 1.44-1.839.869 0 1.436.712 1.436 1.839 0 .518-.138.936-.384 1.201l-.25-.302h-1.023l.612.895c-.127.03-.253.049-.388.049Zm6.303-3.623h.978c.559 0 .91.321.91.832 0 .519-.332.825-.899.825h-.989v-1.657Zm0 2.522h.922l1.003 1.951h1.276l-1.134-2.126c.619-.246.977-.843.977-1.53 0-1.07-.727-1.727-1.91-1.727h-2.26v5.383h1.126v-1.951Zm5.464.455c.041 1.004.873 1.634 2.156 1.634 1.351 0 2.183-.664 2.183-1.749 0-.836-.467-1.302-1.548-1.53l-.65-.138c-.63-.134-.887-.324-.887-.656 0-.411.373-.672.936-.672.545 0 .94.284.992.709h1.06c-.034-.959-.873-1.623-2.06-1.623-1.242 0-2.059.668-2.059 1.682 0 .821.481 1.332 1.463 1.537l.701.15c.66.141.929.339.929.682 0 .407-.414.691-1 .691-.634 0-1.074-.28-1.127-.717h-1.089ZM154.303 567.862h1.763l5.987-11.9v-1.558h-8.906v1.492h7.246v.038l-6.09 11.928Z" fill="#000"/><g filter="url(#s)"><rect x="206.303" y="549.334" width="89.899" height="35.145" rx="3.514" fill="#fff"/></g><path d="M244.741 578.09v-4.42h1.615v-.963h-4.357v.963h1.615v4.42h1.127Zm5.277-5.383h-1.127v3.525c0 1.194.877 1.996 2.253 1.996 1.381 0 2.257-.802 2.257-1.996v-3.525h-1.126v3.41c0 .679-.407 1.111-1.131 1.111-.72 0-1.126-.432-1.126-1.111v-3.41Zm9.022 5.383 1.795-5.383h-1.213l-1.201 4.115h-.067l-1.224-4.115h-1.272l1.821 5.383h1.361ZM251.37 568.086c2.854 0 4.887-1.604 4.887-3.861 0-1.67-1.156-3.05-2.9-3.46v-.038c1.464-.466 2.35-1.604 2.35-3.003 0-2.051-1.819-3.544-4.337-3.544-2.499 0-4.346 1.502-4.346 3.535 0 1.418.905 2.565 2.36 3.012v.038c-1.735.401-2.892 1.781-2.892 3.46 0 2.247 2.034 3.861 4.878 3.861Zm0-1.464c-1.847 0-3.171-1.054-3.171-2.518 0-1.474 1.324-2.528 3.171-2.528 1.856 0 3.171 1.045 3.171 2.528 0 1.464-1.315 2.518-3.171 2.518Zm0-6.519c-1.576 0-2.677-.924-2.677-2.229 0-1.315 1.101-2.248 2.677-2.248s2.677.923 2.677 2.248c0 1.305-1.11 2.229-2.677 2.229Z" fill="#000"/><g filter="url(#t)"><rect x="300.021" y="549.334" width="89.899" height="35.145" rx="3.514" fill="#fff"/></g><path d="M334.696 574.528h.06l1.018 3.562h1.056l1.429-5.383h-1.164l-.832 3.794h-.06l-1-3.794h-.951l-.981 3.794h-.06l-.839-3.794H331.2l1.426 5.383h1.063l1.007-3.562Zm5.747 3.562h1.216l1.172-1.824h.067l1.156 1.824h1.284l-1.746-2.693 1.772-2.69h-1.261l-1.134 1.884h-.067l-1.123-1.884h-1.325l1.709 2.671-1.72 2.712Zm10.045 0v-1.981l1.873-3.402h-1.22l-1.183 2.253h-.067l-1.186-2.253h-1.22l1.876 3.402v1.981h1.127Zm4.177 0h4.156v-.962h-2.776v-.067l2.701-3.597v-.757h-4.018v.963h2.645v.067l-2.708 3.592v.761ZM344.753 568.086c3.292 0 5.214-2.649 5.214-7.181 0-1.465-.215-2.677-.663-3.712-.82-1.931-2.424-3.022-4.448-3.022-2.761 0-4.766 1.94-4.766 4.598 0 2.555 1.903 4.449 4.467 4.449 1.716 0 3.19-.868 3.759-2.201H348.344c-.047 3.572-1.334 5.605-3.572 5.605-1.334 0-2.425-.802-2.779-2.024h-1.707c.41 2.108 2.173 3.488 4.467 3.488Zm.093-6.342c-1.762 0-3.059-1.278-3.059-3.031 0-1.688 1.362-3.031 3.087-3.031 1.735 0 3.078 1.352 3.078 3.078 0 1.716-1.324 2.984-3.106 2.984Z" fill="#000"/><g filter="url(#u)"><rect x="206.303" y="589.827" width="89.899" height="35.145" rx="3.514" fill="#fff"/></g><path d="M251.389 614.163c3.133 0 4.943-2.714 4.943-6.967 0-4.225-1.819-6.939-4.943-6.939-3.125 0-4.962 2.733-4.962 6.948 0 4.253 1.819 6.958 4.962 6.958Zm0-1.465c-2.108 0-3.274-2.145-3.274-5.502 0-3.283 1.194-5.465 3.274-5.465s3.255 2.163 3.255 5.474c0 3.358-1.157 5.493-3.255 5.493ZM344.118 605.126a.572.572 0 1 1 .81-.81l1.891 1.891 1.891-1.891a.572.572 0 1 1 .81.81l-1.891 1.891 1.891 1.891a.572.572 0 1 1-.81.81l-1.891-1.891-1.891 1.891a.572.572 0 1 1-.81-.81l1.89-1.891-1.89-1.891Z" fill="#000"/><path fill-rule="evenodd" clip-rule="evenodd" d="m341.754 601.194-5.822 5.823 5.822 5.823c.43.43 1.013.671 1.621.671h7.837a2.292 2.292 0 0 0 2.292-2.292v-8.404a2.292 2.292 0 0 0-2.292-2.292h-7.837c-.608 0-1.191.241-1.621.671Zm9.458 11.324h-7.837c-.344 0-.675-.137-.918-.381l-5.121-5.12 5.121-5.121a1.3 1.3 0 0 1 .918-.38h7.837a1.3 1.3 0 0 1 1.299 1.299v8.404a1.3 1.3 0 0 1-1.299 1.299Z" fill="#000"/></g></g></g><path fill-rule="evenodd" clip-rule="evenodd" d="m88.484 272.93-.166 367.63c-.01 21.761 2.252 29.653 6.502 37.611 4.25 7.957 10.491 14.204 18.443 18.462 7.952 4.258 15.841 6.528 37.598 6.538l198.985.09c21.757.009 29.648-2.253 37.604-6.504 7.956-4.251 14.201-10.492 18.459-18.446 4.257-7.953 6.526-15.843 6.536-37.605l.159-351.611a2.29 2.29 0 0 0 2.289-2.288l.02-44.241a2.29 2.29 0 0 0-2.287-2.29l.005-11.441a2.29 2.29 0 0 0 2.289-2.288l.02-44.242a2.29 2.29 0 0 0-2.287-2.289l.009-20.595a2.289 2.289 0 0 0 2.289-2.288l.01-21.358a2.29 2.29 0 0 0-2.287-2.289l.012-26.664c.01-21.761-2.252-29.653-6.503-37.61-4.25-7.958-10.49-14.205-18.442-18.463-7.952-4.258-15.841-6.528-37.598-6.538l-198.985-.09c-21.757-.01-29.648 2.253-37.604 6.504-7.956 4.251-14.201 10.492-18.459 18.445-4.257 7.954-6.526 15.844-6.536 37.606l-.04 89.212a2.288 2.288 0 0 0-2.29 2.287l-.032 72.465a2.289 2.289 0 0 0 2.287 2.29ZM394.38 111.204c.007-16.233.011-24.35-3.145-30.552a28.981 28.981 0 0 0-12.659-12.673c-6.198-3.162-14.313-3.166-30.544-3.173L336.44 64.8c-2.81.006-5.135 2.183-5.34 4.943-.11 3.793-.843 6.577-2.129 8.98a14.552 14.552 0 0 1-6.057 6.052c-2.611 1.395-5.671 2.137-9.985 2.135l-123.04-.056c-4.314-.002-7.373-.747-9.983-2.144a14.558 14.558 0 0 1-6.051-6.058c-1.282-2.4-2.012-5.179-2.121-8.963-.193-2.769-2.52-4.958-5.336-4.966l-11.622-.006c-16.231-.007-24.346-.01-30.547 3.146a28.986 28.986 0 0 0-12.671 12.661c-3.161 6.2-3.165 14.316-3.172 30.55l-.238 526.629c-.007 16.234-.011 24.351 3.145 30.552a28.978 28.978 0 0 0 12.66 12.673c6.198 3.163 14.313 3.166 30.544 3.174l193.256.087c16.23.007 24.346.011 30.546-3.146a28.976 28.976 0 0 0 12.671-12.661c3.162-6.199 3.165-14.316 3.173-30.55l.237-526.629Z" fill="#fff"/><path fill-rule="evenodd" clip-rule="evenodd" d="M274.806 74.446a4.419 4.419 0 0 0 4.414-4.424 4.419 4.419 0 0 0-4.418-4.42 4.419 4.419 0 0 0-4.413 4.424 4.418 4.418 0 0 0 4.417 4.42Z" fill="#B69FFB"/><rect width="39.74" height="6.623" rx="3.087" transform="translate(220.709 66.722)" fill="#89F3D9"/></g><defs><filter id="q" x="300.021" y="508.841" width="89.898" height="35.908" filterUnits="userSpaceOnUse" color-interpolation-filters="sRGB"><feFlood flood-opacity="0" result="BackgroundImageFix"/><feColorMatrix in="SourceAlpha" values="0 0 0 0 0 0 0 0 0 0 0 0 0 0 0 0 0 0 127 0" result="hardAlpha"/><feOffset dy=".764"/><feColorMatrix values="0 0 0 0 0 0 0 0 0 0 0 0 0 0 0 0 0 0 0.3 0"/><feBlend in2="BackgroundImageFix" result="effect1_dropShadow_30001_375455"/><feBlend in="SourceGraphic" in2="effect1_dropShadow_30001_375455" result="shape"/></filter><filter id="b" x="2" y=".092" width="457" height="787.198" filterUnits="userSpaceOnUse" color-interpolation-filters="sRGB"><feFlood flood-opacity="0" result="BackgroundImageFix"/><feColorMatrix in="SourceAlpha" values="0 0 0 0 0 0 0 0 0 0 0 0 0 0 0 0 0 0 127 0" result="hardAlpha"/><feOffset dy=".739"/><feGaussianBlur stdDeviation="2.217"/><feColorMatrix values="0 0 0 0 0.0784314 0 0 0 0 0.105882 0 0 0 0 0.160784 0 0 0 0.08 0"/><feBlend in2="BackgroundImageFix" result="effect1_dropShadow_30001_375455"/><feColorMatrix in="SourceAlpha" values="0 0 0 0 0 0 0 0 0 0 0 0 0 0 0 0 0 0 127 0" result="hardAlpha"/><feOffset dx="-20" dy="20"/><feGaussianBlur stdDeviation="32"/><feColorMatrix values="0 0 0 0 0.00443437 0 0 0 0 0.00171874 0 0 0 0 0.1375 0 0 0 0.1 0"/><feBlend in2="effect1_dropShadow_30001_375455" result="effect2_dropShadow_30001_375455"/><feBlend in="SourceGraphic" in2="effect2_dropShadow_30001_375455" result="shape"/><feColorMatrix in="SourceAlpha" values="0 0 0 0 0 0 0 0 0 0 0 0 0 0 0 0 0 0 127 0" result="hardAlpha"/><feOffset dy="4.433"/><feGaussianBlur stdDeviation="2.124"/><feComposite in2="hardAlpha" operator="arithmetic" k2="-1" k3="1"/><feColorMatrix values="0 0 0 0 0.6125 0 0 0 0 0.6125 0 0 0 0 0.6125 0 0 0 0.16 0"/><feBlend in2="shape" result="effect3_innerShadow_30001_375455"/><feColorMatrix in="SourceAlpha" values="0 0 0 0 0 0 0 0 0 0 0 0 0 0 0 0 0 0 127 0" result="hardAlpha"/><feOffset dy="-4.433"/><feGaussianBlur stdDeviation="2.124"/><feComposite in2="hardAlpha" operator="arithmetic" k2="-1" k3="1"/><feColorMatrix values="0 0 0 0 0.611765 0 0 0 0 0.611765 0 0 0 0 0.611765 0 0 0 0.33 0"/><feBlend in2="effect3_innerShadow_30001_375455" result="effect4_innerShadow_30001_375455"/><feColorMatrix in="SourceAlpha" values="0 0 0 0 0 0 0 0 0 0 0 0 0 0 0 0 0 0 127 0" result="hardAlpha"/><feOffset dx=".739" dy=".739"/><feGaussianBlur stdDeviation="2.309"/><feComposite in2="hardAlpha" operator="arithmetic" k2="-1" k3="1"/><feColorMatrix values="0 0 0 0 0.85 0 0 0 0 0.85 0 0 0 0 0.85 0 0 0 0.64 0"/><feBlend in2="effect4_innerShadow_30001_375455" result="effect5_innerShadow_30001_375455"/></filter><filter id="g" x="106.473" y="266.068" width="291.389" height="92.601" filterUnits="userSpaceOnUse" color-interpolation-filters="sRGB"><feFlood flood-opacity="0" result="BackgroundImageFix"/><feColorMatrix in="SourceAlpha" values="0 0 0 0 0 0 0 0 0 0 0 0 0 0 0 0 0 0 127 0" result="hardAlpha"/><feOffset dx="2" dy="2"/><feGaussianBlur stdDeviation="6"/><feComposite in2="hardAlpha" operator="out"/><feColorMatrix values="0 0 0 0 0 0 0 0 0 0 0 0 0 0 0 0 0 0 0.1 0"/><feBlend in2="BackgroundImageFix" result="effect1_dropShadow_30001_375455"/><feBlend in="SourceGraphic" in2="effect1_dropShadow_30001_375455" result="shape"/></filter><filter id="h" x="88.409" y="44.501" width="323.516" height="99.783" filterUnits="userSpaceOnUse" color-interpolation-filters="sRGB"><feFlood flood-opacity="0" result="BackgroundImageFix"/><feGaussianBlur in="BackgroundImageFix" stdDeviation="7.796"/><feComposite in2="SourceAlpha" operator="in" result="effect1_backgroundBlur_30001_375455"/><feBlend in="SourceGraphic" in2="effect1_backgroundBlur_30001_375455" result="shape"/></filter><filter id="k" x="24.928" y="380.693" width="452.648" height="388.471" filterUnits="userSpaceOnUse" color-interpolation-filters="sRGB"><feFlood flood-opacity="0" result="BackgroundImageFix"/><feGaussianBlur in="BackgroundImageFix" stdDeviation="41.536"/><feComposite in2="SourceAlpha" operator="in" result="effect1_backgroundBlur_30001_375455"/><feBlend in="SourceGraphic" in2="effect1_backgroundBlur_30001_375455" result="shape"/></filter><filter id="l" x="112.584" y="468.349" width="89.898" height="35.908" filterUnits="userSpaceOnUse" color-interpolation-filters="sRGB"><feFlood flood-opacity="0" result="BackgroundImageFix"/><feColorMatrix in="SourceAlpha" values="0 0 0 0 0 0 0 0 0 0 0 0 0 0 0 0 0 0 127 0" result="hardAlpha"/><feOffset dy=".764"/><feColorMatrix values="0 0 0 0 0 0 0 0 0 0 0 0 0 0 0 0 0 0 0.3 0"/><feBlend in2="BackgroundImageFix" result="effect1_dropShadow_30001_375455"/><feBlend in="SourceGraphic" in2="effect1_dropShadow_30001_375455" result="shape"/></filter><filter id="m" x="206.303" y="468.349" width="89.898" height="35.908" filterUnits="userSpaceOnUse" color-interpolation-filters="sRGB"><feFlood flood-opacity="0" result="BackgroundImageFix"/><feColorMatrix in="SourceAlpha" values="0 0 0 0 0 0 0 0 0 0 0 0 0 0 0 0 0 0 127 0" result="hardAlpha"/><feOffset dy=".764"/><feColorMatrix values="0 0 0 0 0 0 0 0 0 0 0 0 0 0 0 0 0 0 0.3 0"/><feBlend in2="BackgroundImageFix" result="effect1_dropShadow_30001_375455"/><feBlend in="SourceGraphic" in2="effect1_dropShadow_30001_375455" result="shape"/></filter><filter id="n" x="300.021" y="468.349" width="89.898" height="35.908" filterUnits="userSpaceOnUse" color-interpolation-filters="sRGB"><feFlood flood-opacity="0" result="BackgroundImageFix"/><feColorMatrix in="SourceAlpha" values="0 0 0 0 0 0 0 0 0 0 0 0 0 0 0 0 0 0 127 0" result="hardAlpha"/><feOffset dy=".764"/><feColorMatrix values="0 0 0 0 0 0 0 0 0 0 0 0 0 0 0 0 0 0 0.3 0"/><feBlend in2="BackgroundImageFix" result="effect1_dropShadow_30001_375455"/><feBlend in="SourceGraphic" in2="effect1_dropShadow_30001_375455" result="shape"/></filter><filter id="o" x="112.584" y="508.841" width="89.898" height="35.908" filterUnits="userSpaceOnUse" color-interpolation-filters="sRGB"><feFlood flood-opacity="0" result="BackgroundImageFix"/><feColorMatrix in="SourceAlpha" values="0 0 0 0 0 0 0 0 0 0 0 0 0 0 0 0 0 0 127 0" result="hardAlpha"/><feOffset dy=".764"/><feColorMatrix values="0 0 0 0 0 0 0 0 0 0 0 0 0 0 0 0 0 0 0.3 0"/><feBlend in2="BackgroundImageFix" result="effect1_dropShadow_30001_375455"/><feBlend in="SourceGraphic" in2="effect1_dropShadow_30001_375455" result="shape"/></filter><filter id="p" x="206.303" y="508.841" width="89.898" height="35.908" filterUnits="userSpaceOnUse" color-interpolation-filters="sRGB"><feFlood flood-opacity="0" result="BackgroundImageFix"/><feColorMatrix in="SourceAlpha" values="0 0 0 0 0 0 0 0 0 0 0 0 0 0 0 0 0 0 127 0" result="hardAlpha"/><feOffset dy=".764"/><feColorMatrix values="0 0 0 0 0 0 0 0 0 0 0 0 0 0 0 0 0 0 0.3 0"/><feBlend in2="BackgroundImageFix" result="effect1_dropShadow_30001_375455"/><feBlend in="SourceGraphic" in2="effect1_dropShadow_30001_375455" result="shape"/></filter><filter id="e" x="106.473" y="165.467" width="291.389" height="93.419" filterUnits="userSpaceOnUse" color-interpolation-filters="sRGB"><feFlood flood-opacity="0" result="BackgroundImageFix"/><feColorMatrix in="SourceAlpha" values="0 0 0 0 0 0 0 0 0 0 0 0 0 0 0 0 0 0 127 0" result="hardAlpha"/><feOffset dx="2" dy="2"/><feGaussianBlur stdDeviation="6"/><feComposite in2="hardAlpha" operator="out"/><feColorMatrix values="0 0 0 0 0 0 0 0 0 0 0 0 0 0 0 0 0 0 0.1 0"/><feBlend in2="BackgroundImageFix" result="effect1_dropShadow_30001_375455"/><feBlend in="SourceGraphic" in2="effect1_dropShadow_30001_375455" result="shape"/></filter><filter id="r" x="112.584" y="549.334" width="89.898" height="35.908" filterUnits="userSpaceOnUse" color-interpolation-filters="sRGB"><feFlood flood-opacity="0" result="BackgroundImageFix"/><feColorMatrix in="SourceAlpha" values="0 0 0 0 0 0 0 0 0 0 0 0 0 0 0 0 0 0 127 0" result="hardAlpha"/><feOffset dy=".764"/><feColorMatrix values="0 0 0 0 0 0 0 0 0 0 0 0 0 0 0 0 0 0 0.3 0"/><feBlend in2="BackgroundImageFix" result="effect1_dropShadow_30001_375455"/><feBlend in="SourceGraphic" in2="effect1_dropShadow_30001_375455" result="shape"/></filter><filter id="s" x="206.303" y="549.334" width="89.898" height="35.908" filterUnits="userSpaceOnUse" color-interpolation-filters="sRGB"><feFlood flood-opacity="0" result="BackgroundImageFix"/><feColorMatrix in="SourceAlpha" values="0 0 0 0 0 0 0 0 0 0 0 0 0 0 0 0 0 0 127 0" result="hardAlpha"/><feOffset dy=".764"/><feColorMatrix values="0 0 0 0 0 0 0 0 0 0 0 0 0 0 0 0 0 0 0.3 0"/><feBlend in2="BackgroundImageFix" result="effect1_dropShadow_30001_375455"/><feBlend in="SourceGraphic" in2="effect1_dropShadow_30001_375455" result="shape"/></filter><filter id="t" x="300.021" y="549.334" width="89.898" height="35.908" filterUnits="userSpaceOnUse" color-interpolation-filters="sRGB"><feFlood flood-opacity="0" result="BackgroundImageFix"/><feColorMatrix in="SourceAlpha" values="0 0 0 0 0 0 0 0 0 0 0 0 0 0 0 0 0 0 127 0" result="hardAlpha"/><feOffset dy=".764"/><feColorMatrix values="0 0 0 0 0 0 0 0 0 0 0 0 0 0 0 0 0 0 0.3 0"/><feBlend in2="BackgroundImageFix" result="effect1_dropShadow_30001_375455"/><feBlend in="SourceGraphic" in2="effect1_dropShadow_30001_375455" result="shape"/></filter><filter id="u" x="206.303" y="589.827" width="89.898" height="35.908" filterUnits="userSpaceOnUse" color-interpolation-filters="sRGB"><feFlood flood-opacity="0" result="BackgroundImageFix"/><feColorMatrix in="SourceAlpha" values="0 0 0 0 0 0 0 0 0 0 0 0 0 0 0 0 0 0 127 0" result="hardAlpha"/><feOffset dy=".764"/><feColorMatrix values="0 0 0 0 0 0 0 0 0 0 0 0 0 0 0 0 0 0 0.3 0"/><feBlend in2="BackgroundImageFix" result="effect1_dropShadow_30001_375455"/><feBlend in="SourceGraphic" in2="effect1_dropShadow_30001_375455" result="shape"/></filter><clipPath id="a"><path fill="#fff" transform="translate(.475 .092)" d="M0 0h500v748H0z"/></clipPath><clipPath id="c"><rect x="104.078" y="60.525" width="292.546" height="632.753" rx="27.697" fill="#fff"/></clipPath><clipPath id="d"><path fill="#fff" transform="translate(104 60.092)" d="M0 0h292.334v633H0z"/></clipPath><clipPath id="f"><path fill="#fff" transform="translate(157.064 194.321)" d="M0 0h18.709v18.709H0z"/></clipPath><clipPath id="i"><path fill="#fff" transform="translate(365.152 102.188)" d="M0 0h18.709v18.709H0z"/></clipPath><clipPath id="j"><path fill="#fff" transform="translate(108 427.092)" d="M0 0h286.504v36.673H0z"/></clipPath></defs></svg>