<svg width="25" height="24" viewBox="0 0 25 24" fill="none" xmlns="http://www.w3.org/2000/svg">
<path d="M22.5234 5.90484C21.7885 6.23037 20.998 6.44757 20.1642 6.55034C21.0119 6.04705 21.6641 5.24434 21.9701 4.29609C21.1769 4.76105 20.2981 5.10269 19.3631 5.28267C18.6165 4.49107 17.5516 4 16.3717 4C14.1053 4 12.2682 5.82096 12.2682 8.06633C12.2682 8.38408 12.3054 8.6935 12.3754 8.99403C8.96568 8.82293 5.94149 7.20196 3.91832 4.74216C3.5628 5.34322 3.36281 6.04705 3.36281 6.78977C3.36281 8.20132 4.08553 9.44399 5.18766 10.1762C4.51494 10.1556 3.88166 9.96839 3.32726 9.66842C3.32726 9.68064 3.32726 9.69897 3.32726 9.71619C3.32726 11.6888 4.74214 13.3314 6.61754 13.7053C6.27479 13.7992 5.9126 13.8514 5.5393 13.8514C5.27432 13.8514 5.01601 13.8214 4.76603 13.7764C5.28821 15.3885 6.80308 16.5667 8.59793 16.6017C7.1936 17.6905 5.42486 18.3427 3.50169 18.3427C3.16949 18.3427 2.84452 18.3238 2.52344 18.2849C4.34051 19.4354 6.49811 20.1098 8.81402 20.1098C16.3606 20.1098 20.4892 13.9125 20.4892 8.53629C20.4892 8.36019 20.4836 8.18465 20.4753 8.01133C21.2808 7.44249 21.9751 6.72477 22.5234 5.90484Z" fill="#03A9F4"/>
</svg>
